<svg width="623" height="378" viewBox="0 0 623 378" fill="none" xmlns="http://www.w3.org/2000/svg">
<path d="M210.427 374.019L177.838 347.675L184.75 333.242L202.494 320.64L203.464 319.952L203.322 318.771L199.637 288.184L199.438 286.532L197.778 286.427L188.629 285.85L184.405 270.931L184.042 269.649L182.719 269.49L164.893 267.349L166.273 226.804L166.291 226.263L166.034 225.787L158.661 212.124L158.101 211.087L156.921 211.074L142.587 210.927L139.685 190.153L139.586 189.444L139.06 188.959L135.682 185.845L135.34 185.53L134.895 185.398L99.2367 174.835L89.8125 163.26L90.179 150.691L90.2456 148.405L87.9711 148.644L74.7157 150.035L74.1847 150.09L73.7522 150.403L58.4926 161.442L38.0882 162.807L37.5542 150.09L37.4411 147.399L34.8974 148.286L20.9818 153.138L3.44246 130.869L10.9144 120.221L11.2009 119.813L11.2621 119.318L12.8089 106.819L39.5806 93.3938L40.403 92.9814L40.625 92.0886L47.3854 64.8992L47.5915 64.0704L47.1353 63.3484L40.718 53.191L42.6677 36.7556L65.311 33.438L76.3871 46.3314L77.4345 47.5507L78.8505 46.7902L106.642 31.8643L108.48 30.8772L107.416 29.0825L100.695 17.7446L130.171 9.60262L130.633 9.47512L130.987 9.15237L137.086 3.5881L142.216 13.6842L137.774 25.0297L137.367 26.0689L138.038 26.9608L148.284 40.5853L149.094 41.6633L150.398 41.3157L178.711 33.7643L212.82 31.1013L213.869 31.0194L214.395 30.1085L224.201 13.1528L233.268 35.1644L233.4 35.4858L233.633 35.7437L238.697 41.3471L235.72 52.8034L235.123 55.1002L237.487 55.2995L255.146 56.7878L288.971 68.7806L294.428 78.5635L294.951 79.5001L296.02 79.5831L339.296 82.9408L365.962 103.173L366.317 103.442L366.752 103.535L382.391 106.884L384.342 143.61L351.611 182.151L344.683 185.944L343.642 186.514L343.643 187.7L343.661 212.573L333.028 247.363L319.925 264.794L319.579 265.254L319.531 265.827L319.03 271.731L309.231 280.035L285.009 282.193L284.724 282.218L284.458 282.322L263.413 290.549L263.006 290.708L262.703 291.022L247.305 306.965L246.772 307.516L246.745 308.282L246.098 326.168L235.893 339.6L213.825 362.615L213.475 362.98L213.341 363.467L210.427 374.019Z" fill="#3A4C41" stroke="#F9D99C" stroke-width="4"/>
<path opacity="0.7" d="M143.197 154.134C143.183 134.652 158.965 118.848 178.447 118.835L582.153 118.552C601.635 118.538 617.439 134.32 617.453 153.802C617.466 173.283 601.684 189.087 582.203 189.101L178.496 189.384C159.014 189.398 143.21 173.616 143.197 154.134Z" fill="#1C2529"/>
<path d="M182.694 169.95L182.691 165.44L194.241 165.432C196.441 165.431 198.164 164.788 199.41 163.504C200.656 162.183 201.278 160.606 201.277 158.772C201.276 157.526 201 156.407 200.449 155.418C199.899 154.392 199.091 153.585 198.028 153C197 152.414 195.79 152.121 194.397 152.122L182.682 152.13L182.679 147.62L193.624 147.613C195.457 147.611 196.905 147.134 197.968 146.18C199.067 145.189 199.616 143.777 199.615 141.943C199.614 140.11 199.044 138.717 197.907 137.765C196.77 136.775 195.266 136.281 193.396 136.283L182.671 136.29L182.668 131.78L193.503 131.773C195.996 131.771 198.068 132.228 199.719 133.143C201.406 134.022 202.672 135.195 203.516 136.661C204.397 138.127 204.838 139.74 204.84 141.5C204.841 143.553 204.274 145.35 203.138 146.891C202.039 148.432 200.409 149.643 198.246 150.524L198.685 148.874C201.142 149.752 203.05 151.089 204.407 152.885C205.802 154.644 206.5 156.734 206.502 159.154C206.503 161.17 206.01 162.986 205.021 164.6C204.032 166.214 202.603 167.516 200.733 168.508C198.901 169.462 196.646 169.94 193.969 169.942L182.694 169.95ZM179.229 169.953L179.203 131.783L184.373 131.779L184.399 169.949L179.229 169.953ZM224.717 170.471C222.114 170.473 219.767 169.888 217.676 168.716C215.585 167.507 213.934 165.877 212.723 163.824C211.511 161.772 210.905 159.444 210.903 156.84C210.901 154.274 211.486 151.963 212.658 149.909C213.867 147.855 215.479 146.241 217.495 145.066C219.547 143.854 221.838 143.248 224.368 143.246C226.788 143.244 228.915 143.793 230.749 144.892C232.62 145.99 234.07 147.511 235.098 149.454C236.162 151.396 236.696 153.596 236.697 156.052C236.698 156.419 236.68 156.822 236.643 157.262C236.607 157.666 236.534 158.143 236.424 158.693L214.369 158.708L214.366 154.583L233.781 154.569L231.967 156.166C231.966 154.406 231.653 152.921 231.029 151.711C230.405 150.465 229.524 149.512 228.387 148.853C227.25 148.157 225.875 147.81 224.262 147.811C222.575 147.812 221.09 148.18 219.807 148.914C218.524 149.648 217.535 150.676 216.839 151.996C216.144 153.317 215.796 154.875 215.798 156.672C215.799 158.505 216.167 160.118 216.901 161.511C217.635 162.867 218.681 163.93 220.038 164.699C221.396 165.431 222.954 165.797 224.714 165.796C226.181 165.795 227.519 165.537 228.729 165.023C229.975 164.509 231.038 163.738 231.917 162.711L235.109 165.954C233.864 167.421 232.324 168.54 230.492 169.312C228.695 170.083 226.771 170.469 224.717 170.471ZM250.255 170.123L238.906 143.786L244.406 143.782L252.836 164.401L251.076 164.402L259.916 143.771L265.416 143.767L253.225 170.121L250.255 170.123ZM242.782 180.853L250.471 165.063L253.225 170.121L248.282 180.849L242.782 180.853ZM280.412 170.432C277.845 170.434 275.535 169.83 273.48 168.622C271.426 167.413 269.794 165.783 268.582 163.73C267.371 161.641 266.764 159.313 266.762 156.746C266.76 154.216 267.364 151.943 268.572 149.925C269.781 147.871 271.411 146.238 273.464 145.027C275.516 143.815 277.826 143.209 280.393 143.207C282.923 143.205 285.215 143.808 287.269 145.017C289.36 146.189 291.011 147.801 292.222 149.853C293.434 151.906 294.04 154.197 294.042 156.727C294.044 159.294 293.441 161.623 292.232 163.713C291.023 165.768 289.375 167.4 287.285 168.612C285.233 169.823 282.942 170.43 280.412 170.432ZM280.408 165.647C282.058 165.646 283.525 165.26 284.808 164.489C286.09 163.718 287.098 162.672 287.83 161.352C288.563 159.994 288.928 158.454 288.927 156.731C288.926 155.044 288.54 153.541 287.769 152.222C287.035 150.902 286.026 149.876 284.742 149.144C283.495 148.375 282.046 147.991 280.396 147.992C278.746 147.993 277.28 148.379 275.997 149.15C274.714 149.884 273.706 150.911 272.974 152.232C272.242 153.552 271.876 155.056 271.877 156.743C271.878 158.466 272.246 160.006 272.98 161.362C273.715 162.681 274.724 163.726 276.008 164.495C277.291 165.264 278.758 165.648 280.408 165.647ZM318.109 169.855L318.098 154.62C318.097 152.64 317.472 151.009 316.225 149.727C314.977 148.444 313.363 147.804 311.383 147.805C310.063 147.806 308.89 148.1 307.864 148.688C306.838 149.275 306.032 150.082 305.446 151.109C304.86 152.136 304.567 153.31 304.568 154.63L302.532 153.476C302.531 151.496 302.97 149.736 303.849 148.195C304.727 146.655 305.955 145.444 307.531 144.563C309.107 143.645 310.885 143.185 312.865 143.184C314.845 143.183 316.587 143.676 318.091 144.665C319.632 145.654 320.843 146.955 321.724 148.568C322.605 150.144 323.046 151.83 323.047 153.627L323.059 169.852L318.109 169.855ZM299.629 169.868L299.61 143.743L304.56 143.74L304.579 169.865L299.629 169.868ZM340.816 170.389C338.396 170.391 336.232 169.806 334.325 168.634C332.417 167.425 330.894 165.795 329.756 163.742C328.655 161.69 328.103 159.38 328.101 156.813C328.1 154.247 328.648 151.936 329.747 149.882C330.882 147.828 332.402 146.195 334.308 144.984C336.214 143.773 338.377 143.166 340.797 143.164C342.74 143.163 344.5 143.584 346.078 144.426C347.655 145.231 348.921 146.367 349.875 147.833C350.866 149.262 351.417 150.93 351.529 152.837L351.534 160.702C351.425 162.572 350.895 164.241 349.943 165.708C348.99 167.175 347.726 168.331 346.15 169.176C344.574 169.983 342.796 170.388 340.816 170.389ZM341.638 165.714C343.288 165.713 344.717 165.327 345.927 164.556C347.173 163.785 348.144 162.739 348.84 161.419C349.535 160.062 349.883 158.521 349.881 156.798C349.88 155.001 349.512 153.443 348.778 152.124C348.081 150.804 347.108 149.76 345.861 148.991C344.65 148.222 343.22 147.838 341.57 147.839C339.92 147.84 338.472 148.226 337.226 148.997C335.98 149.768 334.991 150.832 334.258 152.189C333.562 153.51 333.215 155.031 333.216 156.755C333.218 158.515 333.567 160.073 334.265 161.429C334.999 162.749 335.99 163.793 337.237 164.562C338.521 165.331 339.988 165.715 341.638 165.714ZM354.566 169.83L349.561 169.833L349.556 162.793L350.486 156.413L349.547 150.088L349.533 130.563L354.538 130.56L354.566 169.83ZM369.73 169.819L385.323 131.638L389.063 131.636L404.655 169.795L399.045 169.799L386.207 137.523L388.132 137.521L375.23 169.815L369.73 169.819ZM377.149 161.179L377.146 156.669L397.221 156.655L397.224 161.165L377.149 161.179ZM428.431 169.778L428.42 154.543C428.419 152.563 427.794 150.932 426.547 149.649C425.299 148.367 423.685 147.726 421.705 147.728C420.385 147.729 419.212 148.023 418.186 148.61C417.16 149.198 416.354 150.005 415.768 151.032C415.182 152.059 414.889 153.233 414.89 154.553L412.854 153.399C412.853 151.419 413.292 149.659 414.171 148.118C415.05 146.577 416.277 145.367 417.853 144.485C419.429 143.568 421.207 143.108 423.187 143.107C425.167 143.105 426.909 143.599 428.413 144.588C429.954 145.577 431.165 146.878 432.046 148.49C432.927 150.067 433.368 151.753 433.37 153.55L433.381 169.775L428.431 169.778ZM409.951 169.791L409.933 143.666L414.883 143.663L414.901 169.788L409.951 169.791ZM451.193 170.312C448.81 170.314 446.646 169.729 444.702 168.557C442.758 167.348 441.217 165.717 440.079 163.665C438.977 161.612 438.425 159.303 438.424 156.736C438.422 154.169 438.97 151.859 440.069 149.805C441.204 147.751 442.725 146.118 444.63 144.907C446.573 143.695 448.754 143.089 451.174 143.087C453.154 143.086 454.914 143.506 456.455 144.348C458.032 145.154 459.298 146.29 460.252 147.756C461.207 149.185 461.74 150.853 461.851 152.76L461.856 160.625C461.748 162.495 461.217 164.163 460.265 165.631C459.349 167.098 458.103 168.254 456.527 169.098C454.988 169.906 453.21 170.311 451.193 170.312ZM452.015 165.637C454.472 165.635 456.451 164.808 457.953 163.157C459.455 161.47 460.205 159.324 460.204 156.721C460.202 154.924 459.853 153.366 459.155 152.046C458.494 150.69 457.54 149.646 456.293 148.913C455.046 148.144 453.597 147.76 451.947 147.762C450.297 147.763 448.831 148.149 447.548 148.92C446.302 149.691 445.313 150.755 444.58 152.112C443.885 153.432 443.537 154.954 443.539 156.677C443.54 158.437 443.889 159.996 444.587 161.352C445.321 162.671 446.33 163.715 447.614 164.485C448.898 165.254 450.365 165.638 452.015 165.637ZM459.883 169.756L459.878 162.716L460.808 156.335L459.869 150.011L459.864 143.631L464.869 143.627L464.888 169.752L459.883 169.756ZM472.094 169.747L472.067 130.477L477.017 130.474L477.044 169.744L472.094 169.747ZM492.867 169.953L481.519 143.616L487.019 143.612L495.448 164.231L493.688 164.232L502.529 143.601L508.029 143.597L495.837 169.951L492.867 169.953ZM485.395 180.683L493.083 164.893L495.837 169.951L490.895 180.679L485.395 180.683ZM516.124 169.717L516.098 132.647L521.048 132.643L521.074 169.713L516.124 169.717ZM509.674 148.106L509.671 143.596L527.491 143.584L527.494 148.094L509.674 148.106ZM532.413 169.705L532.395 143.58L537.345 143.577L537.363 169.702L532.413 169.705ZM534.866 138.353C533.95 138.354 533.198 138.061 532.611 137.475C532.023 136.852 531.73 136.082 531.729 135.166C531.728 134.286 532.021 133.552 532.607 132.965C533.194 132.341 533.945 132.029 534.862 132.028C535.778 132.028 536.53 132.339 537.117 132.962C537.704 133.548 537.998 134.281 537.999 135.161C538 136.078 537.707 136.848 537.121 137.472C536.534 138.059 535.783 138.353 534.866 138.353ZM556.593 170.238C554.027 170.24 551.698 169.637 549.607 168.428C547.553 167.22 545.92 165.589 544.709 163.537C543.534 161.447 542.946 159.138 542.944 156.608C542.942 154.041 543.527 151.731 544.699 149.677C545.907 147.622 547.538 146.008 549.591 144.833C551.68 143.622 554.008 143.015 556.574 143.013C558.591 143.012 560.461 143.395 562.185 144.164C563.909 144.896 565.395 145.977 566.642 147.406L563.345 150.708C562.537 149.756 561.547 149.041 560.373 148.566C559.236 148.053 557.971 147.797 556.578 147.798C554.928 147.799 553.461 148.185 552.178 148.956C550.896 149.691 549.888 150.718 549.156 152.038C548.423 153.359 548.058 154.881 548.059 156.604C548.06 158.328 548.428 159.849 549.162 161.168C549.896 162.488 550.905 163.532 552.189 164.301C553.473 165.07 554.94 165.454 556.59 165.453C557.983 165.452 559.248 165.213 560.384 164.736C561.557 164.221 562.565 163.487 563.408 162.533L566.655 165.831C565.446 167.225 563.962 168.308 562.203 169.079C560.48 169.85 558.61 170.237 556.593 170.238ZM579.873 170.222C578.406 170.223 577.012 170.041 575.692 169.675C574.409 169.272 573.216 168.723 572.116 168.027C571.015 167.295 570.062 166.434 569.254 165.444L572.442 162.252C573.396 163.425 574.497 164.304 575.744 164.89C576.991 165.439 578.384 165.713 579.924 165.712C581.464 165.711 582.656 165.453 583.499 164.939C584.342 164.389 584.763 163.637 584.762 162.683C584.762 161.73 584.413 160.997 583.716 160.484C583.055 159.935 582.193 159.495 581.13 159.166C580.066 158.8 578.929 158.453 577.719 158.123C576.545 157.758 575.427 157.3 574.363 156.751C573.299 156.201 572.419 155.45 571.721 154.498C571.061 153.545 570.73 152.28 570.729 150.703C570.728 149.127 571.112 147.77 571.881 146.632C572.65 145.459 573.713 144.56 575.069 143.935C576.462 143.311 578.13 142.998 580.073 142.997C582.127 142.995 583.942 143.361 585.519 144.093C587.133 144.788 588.454 145.851 589.481 147.28L586.294 150.472C585.56 149.52 584.642 148.787 583.542 148.274C582.478 147.762 581.268 147.506 579.912 147.507C578.482 147.508 577.382 147.765 576.612 148.279C575.879 148.756 575.513 149.435 575.514 150.315C575.514 151.195 575.845 151.873 576.505 152.349C577.165 152.825 578.027 153.228 579.091 153.557C580.191 153.887 581.328 154.234 582.502 154.6C583.675 154.929 584.794 155.387 585.858 155.973C586.921 156.559 587.783 157.346 588.444 158.336C589.142 159.325 589.491 160.627 589.492 162.24C589.494 164.697 588.615 166.641 586.856 168.072C585.134 169.503 582.806 170.22 579.873 170.222Z" fill="#DADBB1"/>
</svg>
