<svg width="30" height="28" viewBox="0 0 30 28" fill="none" xmlns="http://www.w3.org/2000/svg">
<path d="M1.9903 13.6667C1.9903 8.63835 1.9903 6.1242 3.57248 4.56209C5.15469 3 7.70118 3 12.7942 3H18.1961C23.2891 3 25.8357 3 27.4178 4.56209C29 6.1242 29 8.63835 29 13.6667V16.3333C29 21.3616 29 23.8759 27.4178 25.4379C25.8357 27 23.2891 27 18.1961 27H12.7942C7.70118 27 5.15469 27 3.57248 25.4379C1.9903 23.8759 1.9903 21.3616 1.9903 16.3333V13.6667Z" stroke="#1C274C" stroke-width="1.5"/>
<path d="M8.0191 3.07692V1" stroke="#1C274C" stroke-width="1.5" stroke-linecap="round"/>
<path d="M22.0063 3.07692V1" stroke="#1C274C" stroke-width="1.5" stroke-linecap="round"/>
<path d="M21.3069 22.4616C22.4657 22.4616 23.405 21.5317 23.405 20.3846C23.405 19.2376 22.4657 18.3077 21.3069 18.3077C20.1482 18.3077 19.2089 19.2376 19.2089 20.3846C19.2089 21.5317 20.1482 22.4616 21.3069 22.4616Z" stroke="#1C274C" stroke-width="1.5"/>
<path d="M1.72485 10H28.3005" stroke="#1C274C" stroke-width="1.5" stroke-linecap="round"/>
</svg>
