<svg width="36" height="40" viewBox="0 0 36 40" fill="none" xmlns="http://www.w3.org/2000/svg">
<path fill-rule="evenodd" clip-rule="evenodd" d="M18.0403 12.7873C14.4252 12.7873 11.4946 15.8516 11.4946 19.6315C11.4946 23.4115 14.4252 26.4757 18.0403 26.4757C21.6554 26.4757 24.5859 23.4115 24.5859 19.6315C24.5859 15.8516 21.6554 12.7873 18.0403 12.7873ZM14.1129 19.6315C14.1129 17.3636 15.8713 15.525 18.0403 15.525C20.2092 15.525 21.9676 17.3636 21.9676 19.6315C21.9676 21.8994 20.2092 23.738 18.0403 23.738C15.8713 23.738 14.1129 21.8994 14.1129 19.6315Z" fill="#1C274C"/>
<path fill-rule="evenodd" clip-rule="evenodd" d="M18.1897 0.609406C17.414 0.609388 16.7663 0.609388 16.2346 0.647314C15.6811 0.68681 15.1583 0.771933 14.6514 0.991458C13.4753 1.50087 12.5408 2.47795 12.0536 3.70777C11.8 4.34802 11.7313 5.02276 11.7051 5.75617C11.684 6.34574 11.3994 6.83764 10.9795 7.09115C10.5596 7.34466 10.0099 7.35638 9.51101 7.0807C8.89045 6.73774 8.29724 6.46255 7.64013 6.37209C6.37796 6.19834 5.10146 6.55599 4.09146 7.36634C3.6562 7.71556 3.32428 8.14642 3.01483 8.62789C2.71756 9.09039 2.39375 9.67687 2.00585 10.3794L1.96177 10.4592C1.57385 11.1617 1.25003 11.7482 1.01559 12.2486C0.77155 12.7696 0.580645 13.2856 0.509027 13.8543C0.342855 15.1741 0.684904 16.5088 1.45989 17.5649C1.86331 18.1145 2.38774 18.5142 2.98198 18.9046C3.45987 19.2185 3.72506 19.7222 3.72503 20.2294C3.72501 20.7365 3.45981 21.2402 2.98198 21.5541C2.38767 21.9445 1.86319 22.3442 1.45973 22.8939C0.684729 23.9499 0.342698 25.2847 0.508852 26.6044C0.58047 27.1731 0.771375 27.6892 1.01541 28.2101C1.24985 28.7106 1.57368 29.297 1.96158 29.9995L2.00567 30.0794C2.39357 30.7819 2.71738 31.3683 3.01466 31.8308C3.3241 32.3123 3.65603 32.7432 4.09128 33.0923C5.10128 33.9027 6.37779 34.2604 7.63996 34.0867C8.29703 33.9961 8.89021 33.7211 9.51073 33.3781C10.0097 33.1024 10.5594 33.1141 10.9794 33.3677C11.3994 33.6213 11.684 34.1131 11.7051 34.7028C11.7313 35.4362 11.8 36.1109 12.0536 36.7512C12.5408 37.9809 13.4753 38.9581 14.6514 39.4675C15.1583 39.687 15.6811 39.7721 16.2346 39.8115C16.7663 39.8495 17.414 39.8495 18.1897 39.8495H18.2779C19.0537 39.8495 19.7013 39.8495 20.2332 39.8115C20.7867 39.7721 21.3094 39.687 21.8163 39.4675C22.9925 38.9581 23.927 37.9809 24.4142 36.7512C24.6678 36.1109 24.7364 35.4362 24.7626 34.7026C24.7837 34.1131 25.0682 33.6213 25.4882 33.3676C25.9081 33.1141 26.458 33.1024 26.9568 33.378C27.5774 33.7209 28.1705 33.9961 28.8277 34.0865C30.0898 34.2602 31.3663 33.9027 32.3763 33.0923C32.8116 32.743 33.1434 32.3123 33.4529 31.8308C33.7502 31.3683 34.074 30.7819 34.4618 30.0794L34.506 29.9995C34.8938 29.297 35.2178 28.7104 35.4522 28.21C35.6962 27.6891 35.887 27.1731 35.9587 26.6044C36.1249 25.2845 35.7828 23.9498 35.0078 22.8937C34.6044 22.344 34.0799 21.9445 33.4857 21.5541C33.0078 21.2402 32.7427 20.7365 32.7427 20.2293C32.7427 19.7222 33.0078 19.2187 33.4855 18.9048C34.0801 18.5144 34.6046 18.1149 35.008 17.5649C35.783 16.5089 36.1251 15.1742 35.9589 13.8544C35.8872 13.2857 35.6964 12.7697 35.4524 12.2487C35.218 11.7483 34.8942 11.1619 34.5061 10.4595L34.4622 10.3796C34.0741 9.67706 33.7503 9.09052 33.4531 8.62801C33.1436 8.14655 32.8118 7.71569 32.3765 7.36645C31.3665 6.55612 30.09 6.19847 28.8277 6.37222C28.1707 6.46267 27.5775 6.73783 26.957 7.08077C26.4582 7.35649 25.9083 7.34475 25.4884 7.09121C25.0684 6.83768 24.7837 6.3457 24.7626 5.75608C24.7364 5.02269 24.6678 4.34798 24.4142 3.70777C23.927 2.47795 22.9925 1.50087 21.8163 0.991458C21.3094 0.771933 20.7867 0.68681 20.2332 0.647314C19.7013 0.609388 19.0537 0.609388 18.2779 0.609406H18.1897ZM15.6533 3.52075C15.7881 3.46241 15.9927 3.40863 16.4128 3.37864C16.8448 3.34783 17.4027 3.34709 18.2339 3.34709C19.0651 3.34709 19.6229 3.34783 20.0548 3.37864C20.4751 3.40863 20.6797 3.46241 20.8143 3.52075C21.3489 3.7523 21.7738 4.19642 21.9951 4.75544C22.0651 4.93176 22.1229 5.20664 22.1462 5.85839C22.1979 7.30458 22.9118 8.69704 24.1792 9.46211C25.4465 10.2272 26.9568 10.1774 28.1804 9.50117C28.7318 9.19641 28.9886 9.1114 29.1694 9.08648C29.7432 9.00751 30.3234 9.17007 30.7825 9.5384C30.8982 9.63119 31.045 9.78956 31.2799 10.1551C31.5215 10.5308 31.801 11.0356 32.2166 11.7883C32.6322 12.541 32.9106 13.0465 33.101 13.453C33.2862 13.8485 33.344 14.0607 33.363 14.2118C33.4386 14.8117 33.2831 15.4184 32.9308 15.8984C32.8196 16.0498 32.621 16.2397 32.0926 16.5867C30.9209 17.3567 30.1246 18.6993 30.1244 20.2293C30.1244 21.7594 30.9207 23.1022 32.0926 23.8722C32.6208 24.2192 32.8195 24.409 32.9307 24.5604C33.2829 25.0405 33.4384 25.6471 33.3628 26.247C33.3438 26.3982 33.286 26.6102 33.1008 27.0057C32.9104 27.4122 32.632 27.9178 32.2164 28.6704C31.8008 29.4231 31.5213 29.9279 31.2798 30.3037C31.0448 30.6691 30.898 30.8275 30.7823 30.9203C30.3232 31.2887 29.743 31.4512 29.1693 31.3723C28.9884 31.3473 28.7317 31.2623 28.1803 30.9577C26.9567 30.2813 25.4463 30.2316 24.1789 30.9967C22.9118 31.7618 22.1979 33.1542 22.1462 34.6004C22.1229 35.2522 22.0651 35.527 21.9951 35.7035C21.7738 36.2624 21.3489 36.7066 20.8143 36.9382C20.6797 36.9964 20.4751 37.0503 20.0548 37.0802C19.6229 37.1111 19.0651 37.1118 18.2339 37.1118C17.4027 37.1118 16.8448 37.1111 16.4128 37.0802C15.9927 37.0503 15.7881 36.9964 15.6533 36.9382C15.1189 36.7066 14.694 36.2624 14.4726 35.7035C14.4027 35.527 14.3448 35.2522 14.3215 34.6004C14.2698 33.1544 13.5559 31.7618 12.2885 30.9967C11.0212 30.2316 9.51094 30.2815 8.28728 30.9577C7.73582 31.2625 7.4792 31.3475 7.29822 31.3723C6.7245 31.4514 6.14427 31.2888 5.68519 30.9204C5.56953 30.8277 5.42268 30.6693 5.18776 30.3037C4.94627 29.9281 4.66672 29.4233 4.25112 28.6706C3.8355 27.9179 3.5572 27.4124 3.36674 27.0059C3.18148 26.6104 3.12374 26.3982 3.10471 26.247C3.02918 25.6471 3.18465 25.0405 3.53693 24.5604C3.64805 24.4091 3.84677 24.2192 4.37495 23.8722C5.54684 23.1024 6.34321 21.7596 6.34328 20.2296C6.34337 18.6993 5.54696 17.3565 4.37496 16.5865C3.84691 16.2395 3.64821 16.0497 3.53709 15.8983C3.18483 15.4182 3.02936 14.8116 3.10488 14.2117C3.12391 14.0606 3.18165 13.8484 3.36692 13.4529C3.55737 13.0463 3.83567 12.5408 4.25128 11.7881C4.6669 11.0355 4.94642 10.5307 5.18793 10.1549C5.42286 9.78945 5.56971 9.63106 5.68535 9.53829C6.14445 9.16995 6.72467 9.00738 7.29838 9.08636C7.47937 9.11127 7.73601 9.19628 8.28754 9.5011C9.51114 10.1773 11.0213 10.2271 12.2886 9.46206C13.5559 8.69702 14.2698 7.30462 14.3215 5.85849C14.3448 5.20668 14.4027 4.93178 14.4726 4.75544C14.694 4.19642 15.1189 3.7523 15.6533 3.52075Z" fill="#1C274C"/>
</svg>
