<svg width="26" height="25" viewBox="0 0 26 25" fill="none" xmlns="http://www.w3.org/2000/svg">
<path fill-rule="evenodd" clip-rule="evenodd" d="M18.0501 1.20887C19.6221 -0.402962 22.1707 -0.402948 23.7425 1.20887L23.9727 1.44491C25.5447 3.05672 25.5447 5.67 23.9727 7.28181L21.6418 9.67196L8.4278 23.2213C8.25584 23.3975 8.04039 23.5226 7.80447 23.5831L2.43756 24.9589C1.98033 25.0761 1.49665 24.9387 1.16339 24.5971C0.830136 24.2553 0.696164 23.7594 0.810479 23.2905L2.15221 17.7874C2.21119 17.5455 2.33318 17.3246 2.50512 17.1482L15.7963 3.51989L18.0501 1.20887ZM21.845 3.1545C21.3211 2.61723 20.4715 2.61723 19.9476 3.1545L18.6245 4.51117L20.7114 6.73468L22.0753 5.33618C22.5992 4.79892 22.5992 3.92782 22.0753 3.39054L21.845 3.1545ZM18.8135 8.68067L16.7266 6.45716L4.66541 18.8245L3.95617 21.7334L6.79309 21.0062L18.8135 8.68067Z" fill="#474343"/>
</svg>
