<svg width="59" height="59" viewBox="0 0 59 59" fill="none" xmlns="http://www.w3.org/2000/svg">
<path d="M33.72 1.61977C35.7185 9.20228 49.2733 11.6873 58.2851 16.5801C58.4837 21.1123 56.4976 25.9278 51.247 29.7519C51.607 38.7907 46.0584 43.941 37.0591 46.7994C37.0219 51.0741 35.4827 55.0398 31.1878 58.4262L23.8642 53.7394L29.7479 49.3359C29.5245 46.0397 28.5563 42.6019 22.9209 40.6705L19.6563 28.6704C12.8913 27.3313 13.214 24.6403 12.6678 22.1166L4.60818 24.7433C-1.49323 20.7518 -1.83434 15.035 5.38523 14.0049L6.25288 4.63397L12.6058 5.80824L13.8843 1.01718L20.0411 0L22.6105 4.80651L33.72 1.61977Z" fill="#DDE3E9"/>
</svg>
