<svg width="25" height="34" viewBox="0 0 25 34" fill="none" xmlns="http://www.w3.org/2000/svg">
<path d="M15.3143 0.596131C13.7851 0.596101 12.5524 0.59607 11.583 0.774308C10.5765 0.959367 9.72894 1.35525 9.05587 2.27568C8.46886 3.07838 8.17226 4.0648 8.01657 5.22389C7.86529 6.3502 7.83635 7.72857 7.8296 9.38239C7.82703 10.0158 8.20042 10.5321 8.6636 10.5356C9.12679 10.5392 9.50436 10.0285 9.50693 9.39516C9.51374 7.72303 9.5455 6.53781 9.66632 5.63829C9.78274 4.77155 9.96972 4.26986 10.2419 3.89759C10.5514 3.47438 10.986 3.19845 11.8064 3.04759C12.6511 2.89229 13.7706 2.88986 15.3757 2.88986H16.4939C18.099 2.88986 19.2185 2.89229 20.0632 3.04759C20.8838 3.19845 21.3182 3.47438 21.6277 3.89759C21.9373 4.3208 22.139 4.915 22.2494 6.03704C22.3629 7.19209 22.3647 8.72296 22.3647 10.9179V23.1512C22.3647 25.3461 22.3629 26.8769 22.2494 28.0321C22.139 29.1542 21.9373 29.7482 21.6277 30.1715C21.3182 30.5948 20.8838 30.8706 20.0632 31.0216C19.2185 31.1768 18.099 31.1792 16.4939 31.1792H15.3757C13.7706 31.1792 12.6511 31.1768 11.8064 31.0216C10.986 30.8706 10.5514 30.5948 10.2419 30.1715C9.96972 29.7992 9.78274 29.2976 9.66632 28.4309C9.5455 27.5313 9.51374 26.346 9.50693 24.6739C9.50436 24.0405 9.12679 23.5299 8.6636 23.5334C8.20042 23.537 7.82703 24.0534 7.8296 24.6867C7.83635 26.3405 7.86529 27.7189 8.01657 28.8451C8.17226 30.0042 8.46886 30.9907 9.05587 31.7935C9.72894 32.7139 10.5765 33.1098 11.583 33.2948C12.5524 33.4729 13.7851 33.4729 15.3143 33.4729H16.5553C18.0846 33.4729 19.3172 33.4729 20.2868 33.2948C21.2933 33.1098 22.1407 32.7139 22.8138 31.7935C23.4869 30.8729 23.7764 29.7141 23.9117 28.3377C24.0421 27.012 24.042 25.3264 24.042 23.2351V10.834C24.042 8.74276 24.0421 7.05714 23.9117 5.73141C23.7764 4.35501 23.4869 3.19611 22.8138 2.27568C22.1407 1.35525 21.2933 0.959367 20.2868 0.774308C19.3172 0.59607 18.0846 0.596101 16.5553 0.596131H15.3143Z" fill="#1C274C"/>
<path d="M15.3757 15.8877C15.8389 15.8877 16.2144 16.4012 16.2144 17.0346C16.2144 17.6679 15.8389 18.1814 15.3757 18.1814H3.10582L5.29829 20.7513C5.64997 21.1634 5.6907 21.8875 5.38925 22.3684C5.08782 22.8493 4.55836 22.905 4.20669 22.4927L0.292876 17.9053C0.106981 17.6875 0 17.3693 0 17.0346C0 16.6998 0.106981 16.3816 0.292876 16.1639L4.20669 11.5763C4.55836 11.1641 5.08782 11.2198 5.38925 11.7007C5.6907 12.1816 5.64997 12.9057 5.29829 13.3178L3.10582 15.8877H15.3757Z" fill="#1C274C"/>
</svg>
