<svg width="59" height="60" viewBox="0 0 59 60" fill="none" xmlns="http://www.w3.org/2000/svg">
<path d="M46.9585 33.2447H55.3125C57.3296 33.2447 59 34.9151 59 36.9322V55.3697C59 57.3867 57.3296 59.0572 55.3125 59.0572H36.875C34.8579 59.0572 33.1875 57.3867 33.1875 55.3697V36.9322C33.1875 34.9151 34.8579 33.2447 36.875 33.2447H43.3853V31.0543H15.5557V33.2447H22.125C24.1421 33.2447 25.8125 34.9151 25.8125 36.9322V55.3697C25.8125 57.3867 24.1421 59.0572 22.125 59.0572H3.6875C1.67044 59.0572 0 57.3867 0 55.3697V36.9322C0 34.9151 1.67044 33.2447 3.6875 33.2447H11.9844V29.7876C11.9844 28.5191 13.5977 27.8867 15.0376 27.8867H27.7134V25.8125H19.7613C17.7443 25.8125 16.0738 24.1421 16.0738 22.125V3.6875C16.0738 1.67044 17.7443 0 19.7613 0H38.1988C40.2159 0 41.8863 1.67044 41.8863 3.6875V22.125C41.8863 24.1421 40.2159 25.8125 38.1988 25.8125H31.3991V27.9439C36.1818 27.9439 39.1207 27.8867 43.9015 27.8867C45.3415 27.8867 46.9548 28.4638 46.9548 29.7876V33.2447H46.9585ZM55.3125 36.9322H36.875V55.3697H55.3125V36.9322ZM38.2007 3.6875H19.7632V22.125H38.2007V3.6875ZM22.125 36.9322H3.6875V55.3697H22.125V36.9322Z" fill="#DDE3E9"/>
</svg>
