<svg width="15" height="14" viewBox="0 0 15 14" fill="none" xmlns="http://www.w3.org/2000/svg">
<path fill-rule="evenodd" clip-rule="evenodd" d="M2.5835 9.83849e-07C2.59439 9.83849e-07 2.60532 9.83849e-07 2.61629 9.83849e-07H12.4165C12.8818 -2.05547e-05 13.2796 -4.20819e-05 13.5975 0.0412259C13.9347 0.0849994 14.2606 0.183287 14.5282 0.441714C14.8007 0.704701 14.9089 1.03282 14.9564 1.3742C15.0001 1.68779 15.0001 2.07774 15 2.52259V3.08011C15 3.43083 15 3.73404 14.9746 3.98687C14.9472 4.25894 14.8873 4.5142 14.7436 4.75926C14.601 5.00248 14.4089 5.17903 14.1875 5.33729C13.9789 5.48638 13.7124 5.64074 13.399 5.82231L11.3462 7.01146C10.8789 7.2822 10.7162 7.3797 10.6076 7.47669C10.3581 7.69962 10.2152 7.94688 10.1481 8.25675C10.1194 8.38921 10.1163 8.55599 10.1163 9.06265V11.0242C10.1163 11.6712 10.1163 12.2206 10.0517 12.6429C9.98281 13.0919 9.82311 13.5226 9.40451 13.792C8.99539 14.0554 8.54476 14.0312 8.10683 13.9241C7.68509 13.8211 7.16532 13.612 6.54167 13.361L6.48104 13.3367C6.18893 13.2192 5.9331 13.1163 5.73059 13.0087C5.51295 12.893 5.31084 12.7491 5.1562 12.5252C4.99982 12.2987 4.93713 12.0559 4.90917 11.8077C4.88368 11.5813 4.8837 11.3096 4.88372 11.0066V9.06265C4.88372 8.55599 4.88062 8.38921 4.85192 8.25675C4.78479 7.94688 4.64192 7.69962 4.39245 7.47669C4.28382 7.3797 4.12111 7.2822 3.65382 7.01146L1.60096 5.82231C1.28755 5.64074 1.02107 5.48638 0.812499 5.33729C0.591099 5.17903 0.399008 5.00248 0.256376 4.75926C0.112662 4.5142 0.0528224 4.25894 0.0254317 3.98687C-2.64634e-05 3.73403 -1.25299e-05 3.43083 1.42362e-06 3.08011L8.40983e-06 2.55926C8.40983e-06 2.54699 1.42362e-06 2.53476 1.42362e-06 2.52258C-2.64833e-05 2.07773 -6.13581e-05 1.68779 0.043613 1.3742C0.0911456 1.03282 0.199369 0.704701 0.471755 0.441714C0.739417 0.183287 1.06532 0.0849994 1.40249 0.0412259C1.72041 -4.20819e-05 2.11819 -2.05547e-05 2.5835 9.83849e-07ZM1.53346 1.10969C1.30068 1.13991 1.22665 1.18958 1.1878 1.2271C1.15367 1.26004 1.10863 1.31805 1.07954 1.52696C1.04778 1.75507 1.04652 2.06676 1.04652 2.55926V3.05452C1.04652 3.43805 1.04716 3.6851 1.06637 3.8759C1.08426 4.0536 1.11498 4.13905 1.15238 4.20283C1.19086 4.26846 1.25477 4.34218 1.40954 4.45281C1.5726 4.56937 1.79537 4.69906 2.13484 4.89571L4.16718 6.07302C4.18621 6.08408 4.20495 6.09492 4.22342 6.10562C4.61321 6.33127 4.87868 6.48498 5.07851 6.66347C5.49109 7.03206 5.75579 7.47978 5.87335 8.02241C5.93048 8.28611 5.93038 8.58176 5.93024 8.99918C5.93024 9.02 5.93023 9.04118 5.93023 9.06265V10.9792C5.93023 11.3182 5.93105 11.5267 5.94873 11.6837C5.96471 11.8256 5.9899 11.8734 6.00928 11.9014C6.03041 11.932 6.07226 11.9782 6.2107 12.0518C6.35888 12.1305 6.56309 12.2134 6.88549 12.343C7.55595 12.6128 8.00693 12.7928 8.34865 12.8763C8.68256 12.958 8.79258 12.9157 8.84951 12.879C8.89695 12.8485 8.97021 12.7865 9.01793 12.4752C9.06823 12.1468 9.06976 11.6835 9.06976 10.9792V9.06265C9.06976 9.04118 9.06976 9.02 9.06976 8.99918C9.06962 8.58176 9.06949 8.28611 9.12663 8.02241C9.24418 7.47978 9.50888 7.03206 9.92148 6.66347C10.1213 6.48498 10.3868 6.33127 10.7766 6.10562C10.795 6.09492 10.8138 6.08408 10.8329 6.07302L12.8652 4.89571C13.2047 4.69906 13.4274 4.56937 13.5905 4.45281C13.7452 4.34218 13.8091 4.26846 13.8476 4.20283C13.885 4.13905 13.9157 4.0536 13.9336 3.8759C13.9529 3.6851 13.9535 3.43805 13.9535 3.05452V2.55926C13.9535 2.06676 13.9522 1.75507 13.9205 1.52696C13.8914 1.31805 13.8463 1.26004 13.8122 1.2271C13.7733 1.18958 13.6993 1.13991 13.4666 1.10969C13.222 1.07794 12.8909 1.07693 12.3837 1.07693H2.61629C2.10905 1.07693 1.77805 1.07794 1.53346 1.10969Z" fill="#1C274C"/>
</svg>
