<svg width="46" height="36" viewBox="0 0 46 36" fill="none" xmlns="http://www.w3.org/2000/svg">
<path fill-rule="evenodd" clip-rule="evenodd" d="M17.0137 6.62402C13.8116 6.62402 11.2158 9.06443 11.2158 12.0748C11.2158 15.0852 13.8116 17.5256 17.0137 17.5256C20.2159 17.5256 22.8117 15.0852 22.8117 12.0748C22.8117 9.06443 20.2159 6.62402 17.0137 6.62402ZM14.3783 12.0748C14.3783 10.7065 15.5583 9.59718 17.0137 9.59718C18.4693 9.59718 19.6492 10.7065 19.6492 12.0748C19.6492 13.4432 18.4693 14.5524 17.0137 14.5524C15.5583 14.5524 14.3783 13.4432 14.3783 12.0748Z" fill="#1C274C"/>
<path fill-rule="evenodd" clip-rule="evenodd" d="M17.0137 18.5164C14.4926 18.5164 12.1321 18.9934 10.3433 19.8345C8.64904 20.6309 6.9991 22.006 6.9991 23.9671L6.99883 24.091C6.9956 25.1025 6.99016 26.8059 8.70734 27.9746C9.50418 28.5167 10.5557 28.8625 11.8582 29.0829C13.1727 29.3053 14.8573 29.4179 17.0137 29.4179C19.1701 29.4179 20.8547 29.3053 22.1692 29.0829C23.4717 28.8625 24.5232 28.5167 25.3201 27.9746C27.0372 26.8059 27.0319 25.1025 27.0285 24.091L27.0283 23.9671C27.0283 22.006 25.3783 20.6309 23.6841 19.8345C21.8953 18.9934 19.5348 18.5164 17.0137 18.5164ZM10.1616 23.9671C10.1616 23.7388 10.3995 23.1321 11.7576 22.4936C13.021 21.8998 14.8772 21.4895 17.0137 21.4895C19.1503 21.4895 21.0063 21.8998 22.2698 22.4936C23.6278 23.1321 23.8658 23.7388 23.8658 23.9671C23.8658 25.1653 23.7846 25.3491 23.4656 25.5661C23.2084 25.7411 22.6786 25.9758 21.6092 26.1568C20.5519 26.3356 19.074 26.4448 17.0137 26.4448C14.9534 26.4448 13.4755 26.3356 12.4182 26.1568C11.3488 25.9758 10.819 25.7411 10.5617 25.5661C10.2428 25.3491 10.1616 25.1653 10.1616 23.9671Z" fill="#1C274C"/>
<path d="M38.0971 19.5078C38.9704 19.5078 39.6784 18.8422 39.6784 18.0212C39.6784 17.2003 38.9704 16.5347 38.0971 16.5347H29.6638C28.7905 16.5347 28.0825 17.2003 28.0825 18.0212C28.0825 18.8422 28.7905 19.5078 29.6638 19.5078H38.0971Z" fill="#1C274C"/>
<path d="M39.6783 12.0752C39.6783 12.8962 38.9703 13.5618 38.0971 13.5618H27.5554C26.6821 13.5618 25.9741 12.8962 25.9741 12.0752C25.9741 11.2542 26.6821 10.5886 27.5554 10.5886H38.0971C38.9703 10.5886 39.6783 11.2542 39.6783 12.0752Z" fill="#1C274C"/>
<path d="M38.0969 25.4539C38.9702 25.4539 39.6782 24.7883 39.6782 23.9673C39.6782 23.1463 38.9702 22.4807 38.0969 22.4807H31.7719C30.8987 22.4807 30.1907 23.1463 30.1907 23.9673C30.1907 24.7883 30.8987 25.4539 31.7719 25.4539H38.0969Z" fill="#1C274C"/>
<path fill-rule="evenodd" clip-rule="evenodd" d="M19.0031 0.677735H27.6743C31.549 0.677696 34.6179 0.677676 37.0197 0.981275C39.4915 1.29369 41.4923 1.95199 43.0702 3.43532C44.6479 4.91866 45.348 6.79958 45.6805 9.12344C46.0033 11.3814 46.0033 14.2666 46.0033 17.9091V18.1329C46.0033 21.7756 46.0033 24.6608 45.6805 26.9188C45.348 29.2426 44.6479 31.1236 43.0702 32.607C41.4923 34.0902 39.4915 34.7485 37.0197 35.0611C34.6179 35.3645 31.549 35.3645 27.6745 35.3645H19.0031C15.1285 35.3645 12.0595 35.3645 9.65765 35.0611C7.1858 34.7485 5.18509 34.0902 3.60727 32.607C2.02948 31.1236 1.32926 29.2426 0.996944 26.9188C0.67401 24.6608 0.674031 21.7756 0.674073 18.1329V17.9093C0.674031 14.2666 0.67401 11.3815 0.996944 9.12344C1.32926 6.79958 2.02948 4.91866 3.60727 3.43532C5.18509 1.95199 7.1858 1.29369 9.65765 0.981275C12.0595 0.677676 15.1285 0.677696 19.0031 0.677735ZM10.079 3.92791C7.95787 4.19603 6.73577 4.69881 5.8435 5.53765C4.95123 6.3765 4.41643 7.52542 4.13124 9.5196C3.83993 11.5565 3.83658 14.2417 3.83658 18.0211C3.83658 21.8006 3.83993 24.4858 4.13124 26.5228C4.41643 28.5168 4.95123 29.6658 5.8435 30.5046C6.73577 31.3434 7.95787 31.8463 10.079 32.1143C12.2457 32.3882 15.1018 32.3914 19.122 32.3914H27.5554C31.5755 32.3914 34.4317 32.3882 36.5984 32.1143C38.7194 31.8463 39.9416 31.3434 40.8339 30.5046C41.7261 29.6658 42.261 28.5168 42.546 26.5228C42.8374 24.4858 42.8408 21.8006 42.8408 18.0211C42.8408 14.2417 42.8374 11.5565 42.546 9.5196C42.261 7.52542 41.7261 6.3765 40.8339 5.53765C39.9416 4.69881 38.7194 4.19603 36.5984 3.92791C34.4317 3.65404 31.5755 3.65089 27.5554 3.65089H19.122C15.1018 3.65089 12.2457 3.65404 10.079 3.92791Z" fill="#1C274C"/>
</svg>
