<svg width="47" height="52" viewBox="0 0 47 52" fill="none" xmlns="http://www.w3.org/2000/svg">
<path fill-rule="evenodd" clip-rule="evenodd" d="M44.3209 0C45.3 0 46.0938 0.804497 46.0938 1.79688V49.7136C46.0938 50.7059 45.3 51.5104 44.3209 51.5104C43.3418 51.5104 42.5481 50.7059 42.5481 49.7136V1.79688C42.5481 0.804497 43.3418 0 44.3209 0ZM7.60613 7.1875C7.63143 7.1875 7.65681 7.1875 7.68229 7.1875H29.0324C30.072 7.18745 30.9689 7.18743 31.7047 7.25502C32.4826 7.32651 33.2532 7.48475 33.9794 7.9097C34.7878 8.38283 35.4593 9.06334 35.9262 9.88281C36.3453 10.6188 36.5015 11.3998 36.572 12.1884C36.6386 12.9343 36.6386 13.8431 36.6386 14.8968V15.0511C36.6386 16.1048 36.6386 17.0137 36.572 17.7595C36.5015 18.5481 36.3453 19.3291 35.9262 20.0651C35.4593 20.8846 34.7878 21.5651 33.9794 22.0383C33.2532 22.4631 32.4826 22.6215 31.7047 22.6929C30.9689 22.7604 30.072 22.7604 29.0324 22.7604H7.60618C6.56659 22.7604 5.66989 22.7604 4.93404 22.6929C4.15593 22.6215 3.38543 22.4631 2.65926 22.0383C1.85075 21.5651 1.17934 20.8846 0.712541 20.0651C0.293277 19.3291 0.137149 18.5481 0.0666136 17.7595C-6.87159e-05 17.0137 -4.48071e-05 16.1048 2.46851e-06 15.0512V14.8968C-4.48071e-05 13.8431 -6.87159e-05 12.9342 0.0666136 12.1884C0.137149 11.3998 0.293277 10.6188 0.712541 9.88281C1.17934 9.06334 1.85075 8.38283 2.65926 7.9097C3.38543 7.48475 4.15593 7.32651 4.93404 7.25502C5.66986 7.18743 6.56657 7.18745 7.60613 7.1875ZM5.2541 10.8341C4.72189 10.883 4.52868 10.9655 4.43209 11.022C4.1626 11.1797 3.9388 11.4065 3.78319 11.6797C3.72743 11.7776 3.64606 11.9734 3.59782 12.5128C3.54738 13.0769 3.54568 13.8213 3.54568 14.974C3.54568 16.1266 3.54738 16.871 3.59782 17.4351C3.64606 17.9745 3.72743 18.1703 3.78319 18.2682C3.9388 18.5414 4.1626 18.7682 4.43209 18.9259C4.5287 18.9825 4.72189 19.0649 5.2541 19.1138C5.81065 19.1649 6.54505 19.1667 7.68229 19.1667H28.9563C30.0935 19.1667 30.828 19.1649 31.3846 19.1138C31.9167 19.0649 32.1099 18.9825 32.2065 18.9259C32.476 18.7682 32.6999 18.5414 32.8554 18.2682C32.9112 18.1703 32.9925 17.9745 33.0407 17.4351C33.0913 16.871 33.0929 16.1266 33.0929 14.974C33.0929 13.8213 33.0913 13.0769 33.0407 12.5128C32.9925 11.9734 32.9112 11.7776 32.8554 11.6797C32.6999 11.4065 32.476 11.1797 32.2065 11.022C32.1099 10.9655 31.9167 10.883 31.3846 10.8341C30.828 10.783 30.0935 10.7813 28.9563 10.7813H7.68229C6.54505 10.7813 5.81065 10.783 5.2541 10.8341ZM14.6975 28.75H29.0324C30.072 28.75 30.9689 28.75 31.7047 28.8176C32.4826 28.889 33.2532 29.0473 33.9794 29.4721C34.7878 29.9453 35.4593 30.6259 35.9262 31.4453C36.3453 32.1813 36.5015 32.9624 36.572 33.7508C36.6386 34.4967 36.6386 35.4056 36.6386 36.4593V36.6136C36.6386 37.6673 36.6386 38.5763 36.572 39.3221C36.5015 40.1106 36.3453 40.8916 35.9262 41.6276C35.4593 42.447 34.7878 43.1276 33.9794 43.6008C33.2532 44.0256 32.4826 44.184 31.7047 44.2554C30.9689 44.3229 30.072 44.3229 29.0324 44.3229H14.6974C13.6579 44.3229 12.7612 44.3229 12.0254 44.2554C11.2473 44.184 10.4768 44.0256 9.7506 43.6008C8.94209 43.1276 8.27069 42.447 7.80389 41.6276C7.38462 40.8916 7.2285 40.1106 7.15796 39.3221C7.09128 38.5763 7.0913 37.6673 7.09135 36.6136V36.4593C7.0913 35.4056 7.09128 34.4967 7.15796 33.7508C7.2285 32.9624 7.38462 32.1813 7.80389 31.4453C8.27069 30.6259 8.94209 29.9453 9.7506 29.4721C10.4768 29.0473 11.2473 28.889 12.0254 28.8176C12.7612 28.75 13.6579 28.75 14.6975 28.75ZM12.3454 32.3967C11.8132 32.4456 11.62 32.528 11.5234 32.5845C11.2539 32.7422 11.0301 32.9691 10.8745 33.2422C10.8188 33.3402 10.7374 33.5359 10.6892 34.0752C10.6387 34.6394 10.637 35.3838 10.637 36.5365C10.637 37.6891 10.6387 38.4335 10.6892 38.9977C10.7374 39.537 10.8188 39.7327 10.8745 39.8307C11.0301 40.1039 11.2539 40.3307 11.5234 40.4884C11.62 40.5449 11.8132 40.6273 12.3454 40.6762C12.902 40.7275 13.6364 40.7292 14.7736 40.7292H28.9563C30.0935 40.7292 30.828 40.7275 31.3846 40.6762C31.9167 40.6273 32.1099 40.5449 32.2065 40.4884C32.476 40.3307 32.6999 40.1039 32.8554 39.8307C32.9112 39.7327 32.9925 39.537 33.0407 38.9977C33.0913 38.4335 33.0929 37.6891 33.0929 36.5365C33.0929 35.3838 33.0913 34.6394 33.0407 34.0752C32.9925 33.5359 32.9112 33.3402 32.8554 33.2422C32.6999 32.9691 32.476 32.7422 32.2065 32.5845C32.1099 32.528 31.9167 32.4456 31.3846 32.3967C30.828 32.3454 30.0935 32.3438 28.9563 32.3438H14.7736C13.6364 32.3438 12.902 32.3454 12.3454 32.3967Z" fill="#EFF2FB" fill-opacity="0.9"/>
</svg>
