<svg width="37" height="31" viewBox="0 0 37 31" fill="none" xmlns="http://www.w3.org/2000/svg">
<path fill-rule="evenodd" clip-rule="evenodd" d="M12.875 4.15625C12.0571 4.15625 11.3099 4.15626 10.6204 4.16062C9.84382 4.16553 9.20881 3.70782 9.2021 3.13831C9.19541 2.56879 9.81956 2.10311 10.5962 2.09819C11.299 2.09375 12.0576 2.09375 12.871 2.09375H14.5795C15.3562 2.09375 15.9858 2.55546 15.9858 3.125C15.9858 3.69454 15.3562 4.15625 14.5795 4.15625H12.875ZM6.55404 3.20008C6.78453 3.74396 6.37016 4.3219 5.6285 4.49093C5.02627 4.62818 4.60715 4.81287 4.26689 5.06239C3.92664 5.31191 3.67479 5.61926 3.48763 6.0609C3.25713 6.60478 2.46903 6.90866 1.72738 6.73963C0.985719 6.5706 0.571344 5.99266 0.801838 5.44878C1.10218 4.74012 1.56643 4.12592 2.27816 3.60398C2.98989 3.08205 3.82743 2.7416 4.79379 2.52135C5.53544 2.35232 6.32354 2.65619 6.55404 3.20008ZM1.64315 8.68154C2.41976 8.68646 3.04391 9.15213 3.03721 9.72165C3.03127 10.2273 3.03125 10.7752 3.03125 11.375V13.2499C3.03125 13.8196 2.40164 14.2812 1.625 14.2812C0.848356 14.2812 0.21875 13.8196 0.21875 13.2499V11.3721C0.21875 10.7756 0.21875 10.2193 0.224806 9.70387C0.231519 9.13434 0.866525 8.67663 1.64315 8.68154ZM1.625 16.7188C2.40164 16.7188 3.03125 17.1805 3.03125 17.7501V19.625C3.03125 20.2248 3.03127 20.7727 3.03721 21.2783C3.04391 21.8478 2.41976 22.3135 1.64315 22.3185C0.866525 22.3234 0.231519 21.8657 0.224806 21.2962C0.21875 20.7807 0.21875 20.2244 0.21875 19.6279V17.7501C0.21875 17.1805 0.848356 16.7188 1.625 16.7188ZM1.72738 24.2604C2.46903 24.0914 3.25713 24.3953 3.48763 24.9391C3.67479 25.3807 3.92664 25.6881 4.26689 25.9376C4.60715 26.1872 5.02627 26.3718 5.6285 26.5091C6.37016 26.6781 6.78453 27.256 6.55404 27.7999C6.32354 28.3439 5.53544 28.6477 4.79379 28.4786C3.82743 28.2583 2.98989 27.9179 2.27816 27.3961C1.56643 26.8741 1.10218 26.2599 0.801838 25.5512C0.571344 25.0073 0.985719 24.4294 1.72738 24.2604ZM9.2021 27.8617C9.20881 27.2921 9.84382 26.8344 10.6204 26.8393C11.3099 26.8438 12.0571 26.8438 12.875 26.8438H14.5795C15.3562 26.8438 15.9858 27.3055 15.9858 27.875C15.9858 28.4445 15.3562 28.9062 14.5795 28.9062H12.8707C12.0574 28.9062 11.2989 28.9062 10.5962 28.9018C9.81956 28.8969 9.19541 28.4312 9.2021 27.8617Z" fill="#DDE3E9"/>
<path fill-rule="evenodd" clip-rule="evenodd" d="M18.5 0.71875C19.2766 0.71875 19.9062 1.18046 19.9062 1.75V2.09375H20.4808C23.9266 2.09372 26.6559 2.09371 28.7919 2.3043C30.9901 2.52105 32.7695 2.97771 34.1728 4.0067C35.5758 5.03571 36.1985 6.34052 36.4942 7.9526C36.7813 9.51901 36.7812 11.5205 36.7812 14.0474V16.9526C36.7812 19.4795 36.7813 21.481 36.4942 23.0474C36.1985 24.6594 35.5758 25.9643 34.1728 26.9934C32.7695 28.0223 30.9901 28.4789 28.7919 28.6957C26.6559 28.9063 23.9266 28.9062 20.4808 28.9062H19.9062V29.25C19.9062 29.8195 19.2766 30.2812 18.5 30.2812C17.7234 30.2812 17.0938 29.8195 17.0938 29.25V27.8756V3.12719V3.125V3.12281V1.75C17.0938 1.18046 17.7234 0.71875 18.5 0.71875ZM19.9062 4.15625V26.8438H20.375C23.9503 26.8438 26.4903 26.8416 28.4171 26.6515C30.3035 26.4656 31.3904 26.1168 32.1839 25.5349C32.9774 24.953 33.4531 24.1559 33.7066 22.7726C33.9658 21.3596 33.9688 19.4969 33.9688 16.875V14.125C33.9688 11.5031 33.9658 9.64046 33.7066 8.22742C33.4531 6.84404 32.9774 6.04703 32.1839 5.46511C31.3904 4.8832 30.3035 4.5344 28.4172 4.34842C26.4903 4.15844 23.9503 4.15625 20.375 4.15625H19.9062Z" fill="#DDE3E9"/>
</svg>
