<svg width="22" height="24" viewBox="0 0 22 24" fill="none" xmlns="http://www.w3.org/2000/svg">
<path d="M1 12.3913C1 7.32455 1 4.79116 2.46447 3.21712C3.92893 1.64307 6.28595 1.64307 11 1.64307C15.714 1.64307 18.0711 1.64307 19.5355 3.21712C21 4.79116 21 7.32455 21 12.3913" fill="#C7E5D1"/>
<path d="M1 12.3913C1 7.32455 1 4.79116 2.46447 3.21712C3.92893 1.64307 6.28595 1.64307 11 1.64307C15.714 1.64307 18.0711 1.64307 19.5355 3.21712C21 4.79116 21 7.32455 21 12.3913" stroke="#1C274C" stroke-width="1.5"/>
<path d="M1 14.5405C1 11.5307 1 10.0258 1.54497 8.87623C2.02433 7.86502 2.78924 7.04287 3.73005 6.52764C4.79961 5.94189 6.19974 5.94189 9 5.94189H13C15.8003 5.94189 17.2004 5.94189 18.27 6.52764C19.2108 7.04287 19.9757 7.86502 20.455 8.87623C21 10.0258 21 11.5307 21 14.5405C21 17.5504 21 19.0552 20.455 20.2049C19.9757 21.2161 19.2108 22.0382 18.27 22.5534C17.2004 23.1391 15.8003 23.1391 13 23.1391H9C6.19974 23.1391 4.79961 23.1391 3.73005 22.5534C2.78924 22.0382 2.02433 21.2161 1.54497 20.2049C1 19.0552 1 17.5504 1 14.5405Z" fill="#C7E5D1" stroke="#1C274C" stroke-width="1.5"/>
<path d="M8.50012 14.9709L9.92872 16.6907L13.5001 12.3914" fill="#C7E5D1"/>
<path d="M8.50012 14.9709L9.92872 16.6907L13.5001 12.3914" stroke="#1C274C" stroke-width="1.5" stroke-linecap="round" stroke-linejoin="round"/>
</svg>
