<svg width="25" height="24" viewBox="0 0 25 24" fill="none" xmlns="http://www.w3.org/2000/svg">
<g clip-path="url(#clip0_514_165)">
<path d="M12.5001 0C5.60752 0 0 5.38322 0 12.0001C0 18.6169 5.60752 24.0002 12.5001 24.0002C19.3926 24.0002 25.0002 18.6169 25.0002 12.0001C25.0002 5.38322 19.3925 0 12.5001 0ZM12.5001 21.4727C7.05912 21.4727 2.63256 17.2234 2.63256 12.0001C2.63256 6.77675 7.05912 2.52726 12.5001 2.52726C17.9411 2.52726 22.3676 6.77675 22.3676 12.0001C22.3676 17.2234 17.9411 21.4727 12.5001 21.4727Z" fill="#1C274C"/>
<path d="M17.7124 12.1336H12.5879V7.87227C12.5879 7.17424 11.9987 6.60864 11.2716 6.60864C10.5445 6.60864 9.95532 7.17424 9.95532 7.87227V13.3972C9.95532 14.0952 10.5445 14.6608 11.2716 14.6608H17.7124C18.4395 14.6608 19.0287 14.0952 19.0287 13.3972C19.0287 12.6992 18.4394 12.1336 17.7124 12.1336Z" fill="#1C274C"/>
</g>
<defs>
<clipPath id="clip0_514_165">
<rect width="25" height="24" rx="8" fill="white"/>
</clipPath>
</defs>
</svg>
