<svg width="20" height="22" viewBox="0 0 20 22" fill="none" xmlns="http://www.w3.org/2000/svg">
<path fill-rule="evenodd" clip-rule="evenodd" d="M13.0769 4.63742e-07H8.91651C7.03162 -2.00014e-05 5.53866 -3.02972e-05 4.37024 0.156702C3.16775 0.317987 2.19447 0.657831 1.42691 1.42359C0.659365 2.18937 0.318729 3.16039 0.157067 4.36007C-3.02455e-05 5.52578 -2.0048e-05 7.01526 4.64776e-07 8.89575V15.093C4.64776e-07 17.0088 1.40723 18.5967 3.24668 18.8839C3.38819 19.6656 3.65901 20.3329 4.20344 20.8762C4.82079 21.4921 5.59809 21.757 6.52128 21.8808C7.41048 22 8.54103 22 9.94369 22H13.1332C14.5359 22 15.6665 22 16.5557 21.8808C17.4789 21.757 18.2561 21.4921 18.8735 20.8762C19.4909 20.2602 19.7564 19.4847 19.8805 18.5637C20 17.6765 20 16.5486 20 15.1492V9.92057C20 8.5212 20 7.39325 19.8805 6.50612C19.7564 5.58507 19.4909 4.80958 18.8735 4.19366C18.329 3.6505 17.6602 3.38031 16.8766 3.23913C16.5887 1.40396 14.9971 4.63742e-07 13.0769 4.63742e-07ZM15.2608 3.09143C14.9503 2.18591 14.0898 1.53488 13.0769 1.53488H8.97436C7.01865 1.53488 5.62924 1.53651 4.57523 1.67789C3.54334 1.8163 2.94883 2.07587 2.51477 2.50892C2.08071 2.94197 1.82053 3.5351 1.68181 4.56459C1.54009 5.61615 1.53846 7.00232 1.53846 8.95349V15.093C1.53846 16.1036 2.19102 16.962 3.09864 17.2718C3.0769 16.6478 3.07691 15.942 3.07692 15.1492V9.92057C3.0769 8.5212 3.07688 7.39325 3.19643 6.50612C3.32055 5.58507 3.58608 4.80958 4.20344 4.19366C4.82079 3.57774 5.59809 3.31283 6.52128 3.189C7.41048 3.06973 8.54103 3.06975 9.94369 3.06977H13.1332C13.9279 3.06976 14.6353 3.06975 15.2608 3.09143ZM5.29129 5.27899C5.57515 4.99579 5.97369 4.81114 6.72628 4.7102C7.501 4.60628 8.5278 4.60465 10 4.60465H13.0769C14.5491 4.60465 15.5759 4.60628 16.3507 4.7102C17.1033 4.81114 17.5017 4.99579 17.7856 5.27899C18.0695 5.56218 18.2546 5.9598 18.3558 6.71063C18.4599 7.48355 18.4615 8.50794 18.4615 9.97674V15.093C18.4615 16.5618 18.4599 17.5862 18.3558 18.3592C18.2546 19.11 18.0695 19.5076 17.7856 19.7908C17.5017 20.074 17.1033 20.2586 16.3507 20.3596C15.5759 20.4635 14.5491 20.4651 13.0769 20.4651H10C8.5278 20.4651 7.501 20.4635 6.72628 20.3596C5.97369 20.2586 5.57515 20.074 5.29129 19.7908C5.00744 19.5076 4.82236 19.11 4.72118 18.3592C4.61702 17.5862 4.61539 16.5618 4.61539 15.093V9.97674C4.61539 8.50794 4.61702 7.48355 4.72118 6.71063C4.82236 5.9598 5.00744 5.56218 5.29129 5.27899Z" fill="#474343"/>
</svg>
