<svg width="32" height="27" viewBox="0 0 32 27" fill="none" xmlns="http://www.w3.org/2000/svg">
<path d="M22.5062 12.5706L23.141 11.9736C23.141 11.9736 24.1165 11.194 25.2288 11.5475C27.1653 12.1626 29.4026 11.4966 30.9543 10.051C31.3958 9.6403 31.9319 8.81624 31.9319 8.81624C31.9934 8.73809 32.0149 8.63906 31.9895 8.54456L31.8694 8.08482C31.8469 7.99853 31.7873 7.92491 31.7053 7.87949C31.6233 7.83495 31.5246 7.82314 31.4338 7.84768L27.6224 8.83444C27.4807 8.87079 27.3294 8.82171 27.2434 8.7118L25.4925 6.46753C25.4388 6.39938 25.4163 6.31396 25.429 6.23127L25.7816 3.84709C25.8001 3.71718 25.8998 3.61175 26.0355 3.57634L30.0608 2.53416C30.2425 2.48688 30.3528 2.31243 30.3079 2.14071L30.1487 1.53833C30.1272 1.45291 30.0687 1.38022 29.9885 1.3348C29.9885 1.3348 29.6731 1.14035 29.4436 1.03044C27.1575 -0.0680849 24.2786 0.272678 22.3617 2.05715C20.9457 3.37461 20.391 5.17915 20.6507 6.89273C20.8509 8.21019 20.7572 8.91074 20.1459 9.51225C20.0902 9.56586 19.9144 9.72938 19.6429 9.97745L22.5062 12.5706Z" fill="#737373"/>
<path d="M13.2113 15.7925C8.9389 19.644 4.27876 23.8346 4.27876 23.8346C4.11958 23.9763 4.02877 24.1717 4.02583 24.3761C4.02289 24.5796 4.10983 24.7768 4.26414 24.9213L6.26024 26.7785C6.41649 26.9229 6.62743 27.0029 6.84717 27.0002C7.06692 26.9984 7.27586 26.913 7.42723 26.7658L16.1351 18.5693L13.2113 15.7925Z" fill="#737373"/>
<path d="M31.3391 24.8603C31.4944 24.7158 31.5803 24.5195 31.5774 24.3151C31.5755 24.1106 31.4837 23.9162 31.3255 23.7745L14.2133 8.28003L11.4663 10.8369L28.1751 26.7047C28.3274 26.8528 28.5364 26.9373 28.7561 26.9401C28.9759 26.9428 29.1868 26.8619 29.3431 26.7175L31.3391 24.8603Z" fill="#737373"/>
<path d="M15.8873 0.510219C13.8267 -0.237541 10.4948 -0.345702 8.56511 1.44883C7.04557 2.86265 4.82297 4.93153 4.82297 4.93153C4.03097 5.66749 4.76634 6.39804 4.18135 6.9414C3.59642 7.48563 2.6618 6.9414 2.13549 7.43114L0.205826 9.22736C-0.0686087 9.48177 -0.0686087 9.8961 0.205826 10.1514L2.8943 12.6528C3.16873 12.9082 3.61404 12.9082 3.88841 12.6528L5.81808 10.8574C6.34545 10.3677 5.75946 9.49817 6.34545 8.95481C7.1335 8.22066 7.99387 8.34516 8.49093 8.8067L9.48411 9.73077L10.5603 9.99425L13.3073 7.43835L12.9909 6.46794C12.1149 5.65202 11.9899 4.70795 12.5388 4.19732C13.3884 3.40682 14.7917 2.26474 16.1061 1.775C16.9439 1.46337 16.691 0.687404 15.8873 0.510219ZM12.1608 4.63072C12.1568 4.63345 12.5269 4.20733 12.5338 4.20186L12.1608 4.63072Z" fill="#737373"/>
</svg>
