<svg width="26" height="27" viewBox="0 0 26 27" fill="none" xmlns="http://www.w3.org/2000/svg">
<path d="M1.09473 5.25H24.8509M18.9118 5.25L18.5101 4.1336C18.1206 3.05172 17.9258 2.51078 17.5647 2.11085C17.2458 1.75768 16.8363 1.48432 16.3736 1.31582C15.8497 1.125 15.2341 1.125 14.0026 1.125H11.943C10.7115 1.125 10.0959 1.125 9.57198 1.31582C9.10934 1.48432 8.69979 1.75768 8.38088 2.11085C8.01972 2.51078 7.82503 3.05172 7.4356 4.1336L7.03377 5.25M21.8814 5.25V19.275C21.8814 21.5853 21.8814 22.7403 21.3959 23.6227C20.9688 24.3989 20.2875 25.0299 19.4493 25.4254C18.4964 25.875 17.2492 25.875 14.7545 25.875H11.1911C8.69646 25.875 7.44914 25.875 6.49633 25.4254C5.6582 25.0299 4.97678 24.3989 4.54973 23.6227C4.06425 22.7403 4.06425 21.5853 4.06425 19.275V5.25M15.9423 10.75V20.375M10.0033 10.75V20.375" stroke="#474343" stroke-width="2" stroke-linecap="round" stroke-linejoin="round"/>
</svg>
