<svg width="197" height="81" viewBox="0 0 197 81" fill="none" xmlns="http://www.w3.org/2000/svg">
<path d="M30.7207 2.89648L29.8477 5.08887L29.6377 5.61523L29.9814 6.06543L32.2139 8.99219L32.6182 9.52246L33.2627 9.35352L39.3877 7.74902L46.7822 7.18555L47.3027 7.14648L47.5684 6.69629L49.1396 4.02441L50.6807 7.71484L50.748 7.87598L51.7578 8.97754L51.1875 11.1328L50.8818 12.2861L52.0703 12.3857L55.8516 12.7021L62.9619 15.1895L64.0459 17.1045L64.3076 17.5684L64.8389 17.6094L74.1172 18.3242L79.8008 22.5752L79.9775 22.707L80.1924 22.7529L83.1787 23.3838L83.5635 30.6016L76.6367 38.6191L75.2168 39.3838L74.6904 39.667V45.5156L72.4219 52.8047L69.6221 56.4668L69.4453 56.6973L69.4209 56.9873L69.3311 58.0166L67.5098 59.5332L62.4004 59.9785L62.2607 59.9902L62.1289 60.041L57.5371 61.8047L57.334 61.8818L57.1816 62.0371L53.8203 65.458L53.5488 65.7344L53.5342 66.1211L53.3975 69.7773L51.3027 72.4873L46.5068 77.4053L46.3291 77.5869L46.2607 77.832L45.8525 79.2783L39.7676 74.4297L41.0107 71.8789L44.7627 69.2598L45.2559 68.916L45.1836 68.3193L44.3848 61.751L44.2842 60.9258L43.4541 60.873L41.8535 60.7725L41.0459 57.9541L40.8623 57.3154L40.2031 57.2363L36.8301 56.8359L37.1191 48.6553L37.1289 48.3809L36.9971 48.1396L35.3906 45.2051L35.1094 44.6914L34.5244 44.6846L31.8809 44.6562L31.3193 40.6797L31.2695 40.3223L31.002 40.0791L30.2656 39.4102L30.0947 39.2549L29.874 39.1904L22.2617 36.9648L20.4561 34.7783L20.5322 32.2969L20.5664 31.1543L19.4297 31.2715L16.5381 31.5684L16.2764 31.5947L16.0605 31.748L12.8604 34.0225L9.1416 34.2646L9.05176 32.1182L8.99609 30.7793L7.72852 31.2139L5.06445 32.126L1.75879 27.9893L3.13867 26.0576L3.28516 25.8525L3.31738 25.6025L3.61719 23.2236L9.18652 20.4805L9.60059 20.2764L9.71387 19.8291L11.1924 13.9912L11.2988 13.5713L11.0654 13.2061L9.77734 11.1973L10.1279 8.30859L14.3398 7.7041L16.5527 10.2441L17.0732 10.8408L17.7734 10.4717L23.8379 7.27051L24.7734 6.77734L24.2285 5.87109L23.1553 4.08594L28.8594 2.53906L29.0889 2.47656L29.2656 2.31836L30.0566 1.6084L30.7207 2.89648Z" fill="#3A4C41" stroke="#F9D99C" stroke-width="2"/>
<path opacity="0.7" d="M53.3864 29.5883H178.389C184.097 29.5885 188.723 34.2157 188.723 39.9232C188.723 45.6305 184.097 50.257 178.389 50.2572H53.3864C47.679 50.2572 43.0517 45.6306 43.0515 39.9232C43.0515 34.2156 47.6788 29.5883 53.3864 29.5883Z" fill="#3A4C41" stroke="#1C2529" stroke-width="2"/>
<path d="M56.8805 45.1154V43.8034H60.2405C60.8805 43.8034 61.3819 43.6167 61.7445 43.2434C62.1072 42.8594 62.2885 42.4007 62.2885 41.8674C62.2885 41.5047 62.2085 41.1794 62.0485 40.8914C61.8885 40.5927 61.6539 40.3581 61.3445 40.1874C61.0459 40.0167 60.6939 39.9314 60.2885 39.9314H56.8805V38.6194H60.0645C60.5979 38.6194 61.0192 38.4807 61.3285 38.2034C61.6485 37.9154 61.8085 37.5047 61.8085 36.9714C61.8085 36.4381 61.6432 36.0327 61.3125 35.7554C60.9819 35.4674 60.5445 35.3234 60.0005 35.3234H56.8805V34.0114H60.0325C60.7579 34.0114 61.3605 34.1447 61.8405 34.4114C62.3312 34.6674 62.6992 35.0087 62.9445 35.4354C63.2005 35.8621 63.3285 36.3314 63.3285 36.8434C63.3285 37.4407 63.1632 37.9634 62.8325 38.4114C62.5125 38.8594 62.0379 39.2114 61.4085 39.4674L61.5365 38.9874C62.2512 39.2434 62.8059 39.6327 63.2005 40.1554C63.6059 40.6674 63.8085 41.2754 63.8085 41.9794C63.8085 42.5661 63.6645 43.0941 63.3765 43.5634C63.0885 44.0327 62.6725 44.4114 62.1285 44.6994C61.5952 44.9767 60.9392 45.1154 60.1605 45.1154H56.8805ZM55.8725 45.1154V34.0114H57.3765V45.1154H55.8725ZM69.1053 45.2754C68.3479 45.2754 67.6653 45.1047 67.0573 44.7634C66.4493 44.4114 65.9693 43.9367 65.6173 43.3394C65.2653 42.7421 65.0893 42.0647 65.0893 41.3074C65.0893 40.5607 65.2599 39.8887 65.6013 39.2914C65.9533 38.6941 66.4226 38.2247 67.0093 37.8834C67.6066 37.5314 68.2733 37.3554 69.0093 37.3554C69.7133 37.3554 70.3319 37.5154 70.8653 37.8354C71.4093 38.1554 71.8306 38.5981 72.1293 39.1634C72.4386 39.7287 72.5933 40.3687 72.5933 41.0834C72.5933 41.1901 72.5879 41.3074 72.5773 41.4354C72.5666 41.5527 72.5453 41.6914 72.5133 41.8514H66.0973V40.6514H71.7453L71.2173 41.1154C71.2173 40.6034 71.1266 40.1714 70.9453 39.8194C70.7639 39.4567 70.5079 39.1794 70.1773 38.9874C69.8466 38.7847 69.4466 38.6834 68.9773 38.6834C68.4866 38.6834 68.0546 38.7901 67.6813 39.0034C67.3079 39.2167 67.0199 39.5154 66.8173 39.8994C66.6146 40.2834 66.5133 40.7367 66.5133 41.2594C66.5133 41.7927 66.6199 42.2621 66.8333 42.6674C67.0466 43.0621 67.3506 43.3714 67.7453 43.5954C68.1399 43.8087 68.5933 43.9154 69.1053 43.9154C69.5319 43.9154 69.9213 43.8407 70.2733 43.6914C70.6359 43.5421 70.9453 43.3181 71.2013 43.0194L72.1293 43.9634C71.7666 44.3901 71.3186 44.7154 70.7853 44.9394C70.2626 45.1634 69.7026 45.2754 69.1053 45.2754ZM76.5344 45.1794L73.2384 37.5154H74.8384L77.2864 43.5154H76.7744L79.3504 37.5154H80.9504L77.3984 45.1794H76.5344ZM74.3584 48.2994L76.5984 43.7074L77.3984 45.1794L75.9584 48.2994H74.3584ZM85.3073 45.2754C84.5606 45.2754 83.8886 45.0994 83.2913 44.7474C82.6939 44.3954 82.2193 43.9207 81.8673 43.3234C81.5153 42.7154 81.3393 42.0381 81.3393 41.2914C81.3393 40.5554 81.5153 39.8941 81.8673 39.3074C82.2193 38.7101 82.6939 38.2354 83.2913 37.8834C83.8886 37.5314 84.5606 37.3554 85.3073 37.3554C86.0433 37.3554 86.7099 37.5314 87.3073 37.8834C87.9153 38.2247 88.3953 38.6941 88.7473 39.2914C89.0993 39.8887 89.2753 40.5554 89.2753 41.2914C89.2753 42.0381 89.0993 42.7154 88.7473 43.3234C88.3953 43.9207 87.9153 44.3954 87.3073 44.7474C86.7099 45.0994 86.0433 45.2754 85.3073 45.2754ZM85.3073 43.8834C85.7873 43.8834 86.2139 43.7714 86.5873 43.5474C86.9606 43.3234 87.2539 43.0194 87.4673 42.6354C87.6806 42.2407 87.7873 41.7927 87.7873 41.2914C87.7873 40.8007 87.6753 40.3634 87.4513 39.9794C87.2379 39.5954 86.9446 39.2967 86.5713 39.0834C86.2086 38.8594 85.7873 38.7474 85.3073 38.7474C84.8273 38.7474 84.4006 38.8594 84.0273 39.0834C83.6539 39.2967 83.3606 39.5954 83.1473 39.9794C82.9339 40.3634 82.8273 40.8007 82.8273 41.2914C82.8273 41.7927 82.9339 42.2407 83.1473 42.6354C83.3606 43.0194 83.6539 43.3234 84.0273 43.5474C84.4006 43.7714 84.8273 43.8834 85.3073 43.8834ZM96.2738 45.1154V40.6834C96.2738 40.1074 96.0924 39.6327 95.7298 39.2594C95.3671 38.8861 94.8978 38.6994 94.3218 38.6994C93.9378 38.6994 93.5964 38.7847 93.2978 38.9554C92.9991 39.1261 92.7644 39.3607 92.5938 39.6594C92.4231 39.9581 92.3378 40.2994 92.3378 40.6834L91.7458 40.3474C91.7458 39.7714 91.8738 39.2594 92.1298 38.8114C92.3858 38.3634 92.7431 38.0114 93.2018 37.7554C93.6604 37.4887 94.1778 37.3554 94.7538 37.3554C95.3298 37.3554 95.8364 37.4994 96.2738 37.7874C96.7218 38.0754 97.0738 38.4541 97.3298 38.9234C97.5858 39.3821 97.7138 39.8727 97.7138 40.3954V45.1154H96.2738ZM90.8978 45.1154V37.5154H92.3378V45.1154H90.8978ZM102.879 45.2754C102.175 45.2754 101.546 45.1047 100.991 44.7634C100.437 44.4114 99.9941 43.9367 99.6634 43.3394C99.3434 42.7421 99.1834 42.0701 99.1834 41.3234C99.1834 40.5767 99.3434 39.9047 99.6634 39.3074C99.9941 38.7101 100.437 38.2354 100.991 37.8834C101.546 37.5314 102.175 37.3554 102.879 37.3554C103.445 37.3554 103.957 37.4781 104.415 37.7234C104.874 37.9581 105.242 38.2887 105.519 38.7154C105.807 39.1314 105.967 39.6167 105.999 40.1714V42.4594C105.967 43.0034 105.813 43.4887 105.535 43.9154C105.258 44.3421 104.89 44.6781 104.431 44.9234C103.973 45.1581 103.455 45.2754 102.879 45.2754ZM103.119 43.9154C103.599 43.9154 104.015 43.8034 104.367 43.5794C104.73 43.3554 105.013 43.0514 105.215 42.6674C105.418 42.2727 105.519 41.8247 105.519 41.3234C105.519 40.8007 105.413 40.3474 105.199 39.9634C104.997 39.5794 104.714 39.2754 104.351 39.0514C103.999 38.8274 103.583 38.7154 103.103 38.7154C102.623 38.7154 102.202 38.8274 101.839 39.0514C101.477 39.2754 101.189 39.5847 100.975 39.9794C100.773 40.3634 100.671 40.8061 100.671 41.3074C100.671 41.8194 100.773 42.2727 100.975 42.6674C101.189 43.0514 101.477 43.3554 101.839 43.5794C102.213 43.8034 102.639 43.9154 103.119 43.9154ZM106.879 45.1154H105.423V43.0674L105.695 41.2114L105.423 39.3714V33.6914H106.879V45.1154ZM111.291 45.1154L115.835 34.0114H116.923L121.451 45.1154H119.819L116.091 35.7234H116.651L112.891 45.1154H111.291ZM113.451 42.6034V41.2914H119.291V42.6034H113.451ZM128.368 45.1154V40.6834C128.368 40.1074 128.186 39.6327 127.824 39.2594C127.461 38.8861 126.992 38.6994 126.416 38.6994C126.032 38.6994 125.69 38.7847 125.392 38.9554C125.093 39.1261 124.858 39.3607 124.688 39.6594C124.517 39.9581 124.432 40.2994 124.432 40.6834L123.84 40.3474C123.84 39.7714 123.968 39.2594 124.224 38.8114C124.48 38.3634 124.837 38.0114 125.296 37.7554C125.754 37.4887 126.272 37.3554 126.848 37.3554C127.424 37.3554 127.93 37.4994 128.368 37.7874C128.816 38.0754 129.168 38.4541 129.424 38.9234C129.68 39.3821 129.808 39.8727 129.808 40.3954V45.1154H128.368ZM122.992 45.1154V37.5154H124.432V45.1154H122.992ZM134.989 45.2754C134.296 45.2754 133.666 45.1047 133.101 44.7634C132.536 44.4114 132.088 43.9367 131.757 43.3394C131.437 42.7421 131.277 42.0701 131.277 41.3234C131.277 40.5767 131.437 39.9047 131.757 39.3074C132.088 38.7101 132.53 38.2354 133.085 37.8834C133.65 37.5314 134.285 37.3554 134.989 37.3554C135.565 37.3554 136.077 37.4781 136.525 37.7234C136.984 37.9581 137.352 38.2887 137.629 38.7154C137.906 39.1314 138.061 39.6167 138.093 40.1714V42.4594C138.061 43.0034 137.906 43.4887 137.629 43.9154C137.362 44.3421 137 44.6781 136.541 44.9234C136.093 45.1581 135.576 45.2754 134.989 45.2754ZM135.229 43.9154C135.944 43.9154 136.52 43.6754 136.957 43.1954C137.394 42.7047 137.613 42.0807 137.613 41.3234C137.613 40.8007 137.512 40.3474 137.309 39.9634C137.117 39.5687 136.84 39.2647 136.477 39.0514C136.114 38.8274 135.693 38.7154 135.213 38.7154C134.733 38.7154 134.306 38.8274 133.933 39.0514C133.57 39.2754 133.282 39.5847 133.069 39.9794C132.866 40.3634 132.765 40.8061 132.765 41.3074C132.765 41.8194 132.866 42.2727 133.069 42.6674C133.282 43.0514 133.576 43.3554 133.949 43.5794C134.322 43.8034 134.749 43.9154 135.229 43.9154ZM137.517 45.1154V43.0674L137.789 41.2114L137.517 39.3714V37.5154H138.973V45.1154H137.517ZM141.07 45.1154V33.6914H142.51V45.1154H141.07ZM147.113 45.1794L143.817 37.5154H145.417L147.865 43.5154H147.353L149.929 37.5154H151.529L147.977 45.1794H147.113ZM144.937 48.2994L147.177 43.7074L147.977 45.1794L146.537 48.2994H144.937ZM153.878 45.1154V34.3314H155.318V45.1154H153.878ZM152.006 38.8274V37.5154H157.19V38.8274H152.006ZM158.617 45.1154V37.5154H160.057V45.1154H158.617ZM159.337 35.9954C159.07 35.9954 158.852 35.9101 158.681 35.7394C158.51 35.5581 158.425 35.3341 158.425 35.0674C158.425 34.8114 158.51 34.5981 158.681 34.4274C158.852 34.2461 159.07 34.1554 159.337 34.1554C159.604 34.1554 159.822 34.2461 159.993 34.4274C160.164 34.5981 160.249 34.8114 160.249 35.0674C160.249 35.3341 160.164 35.5581 159.993 35.7394C159.822 35.9101 159.604 35.9954 159.337 35.9954ZM165.651 45.2754C164.904 45.2754 164.227 45.0994 163.619 44.7474C163.022 44.3954 162.547 43.9207 162.195 43.3234C161.854 42.7154 161.683 42.0434 161.683 41.3074C161.683 40.5607 161.854 39.8887 162.195 39.2914C162.547 38.6941 163.022 38.2247 163.619 37.8834C164.227 37.5314 164.904 37.3554 165.651 37.3554C166.238 37.3554 166.782 37.4674 167.283 37.6914C167.784 37.9047 168.216 38.2194 168.579 38.6354L167.619 39.5954C167.384 39.3181 167.096 39.1101 166.755 38.9714C166.424 38.8221 166.056 38.7474 165.651 38.7474C165.171 38.7474 164.744 38.8594 164.371 39.0834C163.998 39.2967 163.704 39.5954 163.491 39.9794C163.278 40.3634 163.171 40.8061 163.171 41.3074C163.171 41.8087 163.278 42.2514 163.491 42.6354C163.704 43.0194 163.998 43.3234 164.371 43.5474C164.744 43.7714 165.171 43.8834 165.651 43.8834C166.056 43.8834 166.424 43.8141 166.755 43.6754C167.096 43.5261 167.39 43.3127 167.635 43.0354L168.579 43.9954C168.227 44.4007 167.795 44.7154 167.283 44.9394C166.782 45.1634 166.238 45.2754 165.651 45.2754ZM172.423 45.2754C171.996 45.2754 171.591 45.2221 171.207 45.1154C170.834 44.9981 170.487 44.8381 170.167 44.6354C169.847 44.4221 169.57 44.1714 169.335 43.8834L170.263 42.9554C170.54 43.2967 170.86 43.5527 171.223 43.7234C171.586 43.8834 171.991 43.9634 172.439 43.9634C172.887 43.9634 173.234 43.8887 173.479 43.7394C173.724 43.5794 173.847 43.3607 173.847 43.0834C173.847 42.8061 173.746 42.5927 173.543 42.4434C173.351 42.2834 173.1 42.1554 172.791 42.0594C172.482 41.9527 172.151 41.8514 171.799 41.7554C171.458 41.6487 171.132 41.5154 170.823 41.3554C170.514 41.1954 170.258 40.9767 170.055 40.6994C169.863 40.4221 169.767 40.0541 169.767 39.5954C169.767 39.1367 169.879 38.7421 170.103 38.4114C170.327 38.0701 170.636 37.8087 171.031 37.6274C171.436 37.4461 171.922 37.3554 172.487 37.3554C173.084 37.3554 173.612 37.4621 174.071 37.6754C174.54 37.8781 174.924 38.1874 175.223 38.6034L174.295 39.5314C174.082 39.2541 173.815 39.0407 173.495 38.8914C173.186 38.7421 172.834 38.6674 172.439 38.6674C172.023 38.6674 171.703 38.7421 171.479 38.8914C171.266 39.0301 171.159 39.2274 171.159 39.4834C171.159 39.7394 171.255 39.9367 171.447 40.0754C171.639 40.2141 171.89 40.3314 172.199 40.4274C172.519 40.5234 172.85 40.6247 173.191 40.7314C173.532 40.8274 173.858 40.9607 174.167 41.1314C174.476 41.3021 174.727 41.5314 174.919 41.8194C175.122 42.1074 175.223 42.4861 175.223 42.9554C175.223 43.6701 174.967 44.2354 174.455 44.6514C173.954 45.0674 173.276 45.2754 172.423 45.2754Z" fill="#DADBB1"/>
</svg>
