<svg width="32" height="38" viewBox="0 0 32 38" fill="none" xmlns="http://www.w3.org/2000/svg">
<path d="M27.2485 14.9917V13.7587C27.2485 6.9884 22.2123 1.5 16 1.5C9.7876 1.5 4.75145 6.9884 4.75145 13.7587V14.9917C4.75145 16.4716 4.34953 17.9181 3.59633 19.1494L1.7506 22.1666C0.0647011 24.9225 1.35175 28.6686 4.28393 29.5401C11.9546 31.82 20.0455 31.82 27.716 29.5401C30.6483 28.6686 31.9353 24.9225 30.2493 22.1666L28.4037 19.1494C27.6505 17.9181 27.2485 16.4716 27.2485 14.9917Z" stroke="#1C274C" stroke-width="2"/>
<path d="M8.5 31.25C9.59172 34.3086 12.5374 36.5 16 36.5C19.4625 36.5 22.4083 34.3086 23.5 31.25" stroke="#1C274C" stroke-width="2" stroke-linecap="round"/>
</svg>
