<svg width="31" height="30" viewBox="0 0 31 30" fill="none" xmlns="http://www.w3.org/2000/svg">
<path fill-rule="evenodd" clip-rule="evenodd" d="M14.4792 2.84738C13.9114 3.55871 13.2707 4.6562 12.3399 6.25836L11.8675 7.07167C11.839 7.12069 11.8109 7.16925 11.783 7.21734C11.3494 7.96609 10.9835 8.59806 10.3938 9.02763C9.79772 9.46181 9.0711 9.61851 8.22663 9.80062C8.17236 9.81231 8.1176 9.82413 8.06235 9.83612L7.14487 10.0353C5.33496 10.4283 4.1037 10.6986 3.26033 11.0176C2.43736 11.3288 2.26364 11.5838 2.19743 11.7881C2.12755 12.0037 2.12547 12.3335 2.61747 13.0835C3.11683 13.8447 3.95926 14.7941 5.19131 16.1766L5.81679 16.8785C5.85314 16.9193 5.88917 16.9596 5.92482 16.9996C6.50589 17.6499 6.99038 18.1921 7.21262 18.8779C7.43351 19.5596 7.3603 20.2758 7.27153 21.1443C7.26608 21.1975 7.26059 21.2513 7.25508 21.3059L7.16051 22.2422C6.97439 24.0853 6.8489 25.3544 6.89134 26.2685C6.93369 27.1811 7.13454 27.4333 7.29422 27.5495C7.43625 27.653 7.69879 27.7675 8.5541 27.5323C9.42332 27.2934 10.5785 26.7862 12.2733 26.0375L13.1323 25.658C13.1852 25.6346 13.2377 25.6113 13.2896 25.5882C14.075 25.2399 14.7564 24.9374 15.5 24.9374C16.2435 24.9374 16.9249 25.2399 17.7104 25.5882C17.7624 25.6113 17.8148 25.6346 17.8677 25.658L18.7267 26.0375C20.4214 26.7862 21.5767 27.2934 22.4459 27.5323C23.3012 27.7675 23.5638 27.653 23.7058 27.5495C23.8654 27.4333 24.0662 27.1811 24.1086 26.2685C24.151 25.3544 24.0256 24.0853 23.8394 22.2422L23.7449 21.3059C23.7394 21.2513 23.7339 21.1975 23.7284 21.1443C23.6397 20.2758 23.5665 19.5596 23.7874 18.8779C24.0096 18.1921 24.4942 17.6499 25.0752 16.9994C25.1108 16.9596 25.1469 16.9193 25.1832 16.8785L25.8086 16.1766C27.0407 14.7941 27.8831 13.8447 28.3825 13.0835C28.8745 12.3335 28.8724 12.0037 28.8025 11.7881C28.7363 11.5838 28.5626 11.3288 27.7396 11.0176C26.8963 10.6986 25.665 10.4283 23.8552 10.0353L22.9376 9.83612C22.8824 9.82413 22.8276 9.81231 22.7734 9.80061C21.9289 9.61851 21.2023 9.46181 20.6062 9.02763C20.0165 8.59806 19.6506 7.96609 19.2169 7.21734C19.1891 7.16925 19.161 7.12069 19.1326 7.07167L18.6601 6.25836C17.7293 4.6562 17.0885 3.55871 16.5209 2.84738C15.9537 2.13673 15.664 2.07526 15.5 2.07526C15.336 2.07526 15.0462 2.13673 14.4792 2.84738ZM12.7621 1.58564C13.4493 0.724445 14.2988 0 15.5 0C16.7011 0 17.5506 0.724445 18.2379 1.58564C18.9133 2.43183 19.6293 3.66458 20.5044 5.17121L21.0215 6.06122C21.5875 7.03545 21.7323 7.24241 21.9139 7.3747C22.0887 7.50202 22.3142 7.57304 23.4148 7.81202L24.4242 8.03114C26.1192 8.3991 27.5156 8.70224 28.5326 9.08681C29.5883 9.48602 30.5121 10.0744 30.8677 11.1718C31.2197 12.258 30.8241 13.2572 30.2127 14.1891C29.6187 15.0946 28.6699 16.1591 27.511 17.4596L26.8268 18.2273C26.0814 19.0636 25.9257 19.2684 25.8525 19.4942C25.7779 19.7245 25.7848 19.9906 25.8975 21.1057L26.0007 22.1268C26.1762 23.8647 26.3193 25.2816 26.2691 26.3609C26.2183 27.4594 25.9582 28.5142 25.0135 29.2025C24.051 29.9035 22.9313 29.8245 21.8502 29.5273C20.802 29.2392 19.4953 28.6617 17.9085 27.9607L16.9632 27.543C15.9289 27.086 15.7074 27.0127 15.5 27.0127C15.2925 27.0127 15.071 27.086 14.0368 27.543L13.0915 27.9607C11.5047 28.6617 10.198 29.2392 9.14981 29.5273C8.06878 29.8245 6.94899 29.9035 5.98656 29.2025C5.04178 28.5142 4.78179 27.4594 4.73079 26.3609C4.68069 25.2816 4.82383 23.8645 4.99935 22.1268L5.10248 21.1057C5.21509 19.9906 5.22211 19.7245 5.14748 19.4942C5.07428 19.2684 4.91857 19.0636 4.17315 18.2273L3.48905 17.4596C2.33006 16.1592 1.38126 15.0946 0.787242 14.1891C0.175864 13.2572 -0.219692 12.258 0.132293 11.1718C0.48794 10.0744 1.41174 9.48602 2.46741 9.08681C3.48439 8.70224 4.88079 8.3991 6.57582 8.03114L6.66761 8.01122L7.58509 7.81202C8.6858 7.57305 8.91131 7.50202 9.08613 7.3747C9.26772 7.24241 9.4125 7.03545 9.97847 6.06122L10.4955 5.1712C11.3707 3.66458 12.0868 2.43183 12.7621 1.58564Z" fill="#1C274C"/>
</svg>
