<svg width="20" height="20" viewBox="0 0 20 20" fill="none" xmlns="http://www.w3.org/2000/svg">
<path fill-rule="evenodd" clip-rule="evenodd" d="M3.44466 1.4055e-06C3.45918 1.4055e-06 3.47376 1.4055e-06 3.48838 1.4055e-06H16.5553C17.1757 -2.93639e-05 17.7061 -6.0117e-05 18.13 0.0588941C18.5796 0.121428 19.0141 0.261839 19.371 0.631021C19.7342 1.00672 19.8785 1.47546 19.9419 1.96314C20.0001 2.41113 20.0001 2.96819 20 3.60369V4.40015C20 4.90119 20 5.33434 19.9661 5.69553C19.9296 6.0842 19.8498 6.44886 19.6581 6.79894C19.468 7.1464 19.2119 7.39861 18.9166 7.6247C18.6386 7.83769 18.2832 8.0582 17.8654 8.31759L15.1283 10.0164C14.5052 10.4031 14.2883 10.5424 14.1434 10.681C13.8108 10.9995 13.6203 11.3527 13.5308 11.7954C13.4926 11.9846 13.4884 12.2228 13.4884 12.9466V15.7488C13.4885 16.6731 13.4885 17.458 13.4022 18.0612C13.3104 18.7028 13.0975 19.318 12.5393 19.7029C11.9939 20.0791 11.393 20.0445 10.8091 19.8916C10.2468 19.7444 9.55377 19.4457 8.72223 19.0872L8.64139 19.0524C8.25191 18.8845 7.9108 18.7375 7.64079 18.5838C7.3506 18.4186 7.08111 18.213 6.87493 17.8931C6.66643 17.5696 6.58284 17.2227 6.54556 16.8681C6.51157 16.5447 6.5116 16.1566 6.51163 15.7238V12.9466C6.51163 12.2228 6.50749 11.9846 6.46923 11.7954C6.37972 11.3527 6.18923 10.9995 5.85659 10.681C5.71176 10.5424 5.49481 10.4031 4.87176 10.0164L2.13461 8.31759C1.71674 8.0582 1.36142 7.83769 1.08333 7.6247C0.788132 7.39861 0.532011 7.1464 0.341834 6.79894C0.150216 6.44886 0.0704298 6.0842 0.0339089 5.69553C-3.52845e-05 5.33433 -1.67065e-05 4.90119 1.89816e-06 4.40015L1.12131e-05 3.65608C1.12131e-05 3.63856 1.89816e-06 3.62109 1.89816e-06 3.60368C-3.53111e-05 2.96818 -8.18108e-05 2.41113 0.0581507 1.96314C0.121527 1.47546 0.265825 1.00672 0.629006 0.631021C0.98589 0.261839 1.42042 0.121428 1.86999 0.0588941C2.29388 -6.0117e-05 2.82425 -2.93639e-05 3.44466 1.4055e-06ZM2.04462 1.58527C1.73423 1.62844 1.63554 1.69941 1.58373 1.753C1.53822 1.80006 1.47818 1.88294 1.43939 2.18138C1.39703 2.50724 1.39536 2.95251 1.39536 3.65608V4.3636C1.39536 4.91151 1.39622 5.26442 1.42182 5.537C1.44568 5.79086 1.48663 5.91293 1.5365 6.00405C1.58782 6.0978 1.67302 6.20311 1.87939 6.36116C2.0968 6.52767 2.39382 6.71294 2.84645 6.99388L5.55624 8.67574C5.58162 8.69154 5.6066 8.70703 5.63123 8.72231C6.15095 9.04467 6.50491 9.26426 6.77135 9.51924C7.32145 10.0458 7.67439 10.6854 7.83113 11.4606C7.90731 11.8373 7.90718 12.2597 7.90699 12.856C7.90699 12.8857 7.90698 12.916 7.90698 12.9466V15.6846C7.90698 16.1689 7.90806 16.4668 7.93164 16.691C7.95295 16.8937 7.98653 16.9619 8.01237 17.0021C8.04055 17.0457 8.09634 17.1117 8.28093 17.2168C8.47851 17.3293 8.75079 17.4477 9.18065 17.6329C10.0746 18.0183 10.6759 18.2755 11.1315 18.3948C11.5767 18.5114 11.7234 18.451 11.7993 18.3986C11.8626 18.355 11.9603 18.2665 12.0239 17.8216C12.091 17.3525 12.093 16.6908 12.093 15.6846V12.9466C12.093 12.916 12.093 12.8857 12.093 12.856C12.0928 12.2597 12.0926 11.8373 12.1688 11.4606C12.3256 10.6854 12.6785 10.0458 13.2286 9.51924C13.4951 9.26426 13.849 9.04467 14.3687 8.72231C14.3934 8.70703 14.4184 8.69154 14.4438 8.67574L17.1536 6.99388C17.6062 6.71294 17.9032 6.52767 18.1206 6.36116C18.327 6.20311 18.4122 6.0978 18.4635 6.00405C18.5134 5.91293 18.5543 5.79086 18.5781 5.537C18.6038 5.26442 18.6046 4.91151 18.6046 4.3636V3.65608C18.6046 2.95251 18.603 2.50724 18.5606 2.18138C18.5219 1.88294 18.4618 1.80006 18.4163 1.753C18.3645 1.69941 18.2658 1.62844 17.9554 1.58527C17.6293 1.53992 17.1879 1.53847 16.5116 1.53847H3.48838C2.81207 1.53847 2.37074 1.53992 2.04462 1.58527Z" fill="#1C274C"/>
</svg>
